<?xml version="1.0" encoding="UTF-8" standalone="no"?>
<!-- Created with Inkscape (http://www.inkscape.org/) -->

<svg
   xmlns:dc="http://purl.org/dc/elements/1.1/"
   xmlns:cc="http://creativecommons.org/ns#"
   xmlns:rdf="http://www.w3.org/1999/02/22-rdf-syntax-ns#"
   xmlns:svg="http://www.w3.org/2000/svg"
   xmlns="http://www.w3.org/2000/svg"
   xmlns:sodipodi="http://sodipodi.sourceforge.net/DTD/sodipodi-0.dtd"
   xmlns:inkscape="http://www.inkscape.org/namespaces/inkscape"
   width="210mm"
   height="297mm"
   id="svg3513"
   version="1.1"
   inkscape:version="0.48.5 r10040"
   sodipodi:docname="Nouveau document 4">
  <defs
     id="defs3515">
    <clipPath
       clipPathUnits="userSpaceOnUse"
       id="clipPath276">
      <path
         inkscape:connector-curvature="0"
         d="m 0,0 510.236,0 0,680.315 L 0,680.315 0,0 z"
         id="path278" />
    </clipPath>
    <clipPath
       clipPathUnits="userSpaceOnUse"
       id="clipPath284">
      <path
         inkscape:connector-curvature="0"
         d="m 62.7795,141.188 97.2265,0 0,-87.0391 -97.2265,0 0,87.0391 z"
         id="path286" />
    </clipPath>
  </defs>
  <sodipodi:namedview
     id="base"
     pagecolor="#ffffff"
     bordercolor="#666666"
     borderopacity="1.0"
     inkscape:pageopacity="0.0"
     inkscape:pageshadow="2"
     inkscape:zoom="0.35"
     inkscape:cx="375"
     inkscape:cy="520"
     inkscape:document-units="px"
     inkscape:current-layer="layer1"
     showgrid="false"
     inkscape:window-width="1871"
     inkscape:window-height="1056"
     inkscape:window-x="49"
     inkscape:window-y="24"
     inkscape:window-maximized="1" />
  <metadata
     id="metadata3518">
    <rdf:RDF>
      <cc:Work
         rdf:about="">
        <dc:format>image/svg+xml</dc:format>
        <dc:type
           rdf:resource="http://purl.org/dc/dcmitype/StillImage" />
        <dc:title></dc:title>
      </cc:Work>
    </rdf:RDF>
  </metadata>
  <g
     inkscape:label="Calque 1"
     inkscape:groupmode="layer"
     id="layer1">
    <g
       transform="matrix(1.25,0,0,-1.25,-79.724375,1121.2981)"
       id="g272">
      <g
         id="g274"
         clip-path="url(#clipPath276)">
        <g
           id="g280">
          <g
             id="g282" />
          <g
             id="g288">
            <g
               style="opacity:0.60000598"
               clip-path="url(#clipPath284)"
               id="g290">
              <g
                 transform="translate(63.7795,114.0379)"
                 id="g292">
                <path
                   inkscape:connector-curvature="0"
                   d="m 0,0 2.17,0 c 1.135,0 2.155,-0.367 2.155,-1.25 0,-0.541 -0.362,-0.826 -0.502,-0.937 -0.354,-0.285 -0.879,-0.41 -1.743,-0.41 -0.197,0 -0.353,0.007 -0.551,0.021 l 0,-1.264 c 0,-0.507 0.14,-0.611 0.773,-0.625 l 0,-0.132 -2.302,0 0,0.132 c 0.691,0.041 0.691,0.201 0.691,0.701 l 0,3.008 C 0.691,-0.264 0.6,-0.18 0,-0.131 L 0,0 z m 1.529,-2.298 c 0.157,-0.014 0.321,-0.021 0.494,-0.021 0.304,0 1.405,0 1.405,1.055 0,0.994 -1.2,1.007 -1.562,1.007 -0.246,0 -0.337,-0.007 -0.337,-0.236 l 0,-1.805 z"
                   style="fill:#ffffff;fill-opacity:1;fill-rule:nonzero;stroke:none"
                   id="path294" />
              </g>
              <g
                 transform="translate(73.6378,109.4407)"
                 id="g296">
                <path
                   inkscape:connector-curvature="0"
                   d="m 0,0 -1.324,0 -1.957,2.139 -0.46,-0.013 0,-1.368 c 0,-0.466 0.082,-0.598 0.74,-0.626 l 0,-0.132 -2.277,0 0,0.132 c 0.665,0.034 0.698,0.181 0.698,0.701 l 0,3.008 c 0,0.514 -0.123,0.576 -0.698,0.625 l 0,0.131 2.269,0 c 0.732,0 2.088,-0.145 2.088,-1.215 0,-0.93 -1.069,-1.097 -1.488,-1.167 L -0.715,0.459 C -0.535,0.271 -0.337,0.146 0,0.132 L 0,0 z m -3.741,2.382 c 0.691,0.007 1.924,0.021 1.924,1.015 0,0.923 -1.077,0.943 -1.414,0.943 -0.436,0 -0.51,-0.048 -0.51,-0.249 l 0,-1.709 z"
                   style="fill:#ffffff;fill-opacity:1;fill-rule:nonzero;stroke:none"
                   id="path298" />
              </g>
              <g
                 transform="translate(78.2417,109.4407)"
                 id="g300">
                <path
                   inkscape:connector-curvature="0"
                   d="m 0,0 -4.44,0 0,0.132 c 0.527,0.028 0.716,0.09 0.716,0.626 l 0,3.083 c 0,0.549 -0.198,0.59 -0.716,0.625 l 0,0.131 4.366,0 0.025,-0.993 -0.206,0 c -0.123,0.619 -0.337,0.73 -1.249,0.73 l -1.11,0 c -0.173,0 -0.271,0 -0.271,-0.236 l 0,-1.542 1.266,0 c 0.731,0 0.814,0.166 0.904,0.659 l 0.189,0 0,-1.61 -0.189,0 c -0.098,0.555 -0.222,0.652 -0.904,0.66 l -1.266,0.013 0,-1.721 c 0,-0.286 0,-0.293 1.225,-0.293 1.027,0 1.438,0.209 1.8,0.91 l 0.23,0 L 0,0 z"
                   style="fill:#ffffff;fill-opacity:1;fill-rule:nonzero;stroke:none"
                   id="path302" />
              </g>
              <g
                 transform="translate(82.4761,111.0455)"
                 id="g304">
                <path
                   inkscape:connector-curvature="0"
                   d="m 0,0 c -0.09,0.583 -0.287,0.652 -0.904,0.66 l -1.192,0.013 0,-1.52 c 0,-0.521 0.164,-0.605 0.748,-0.626 l 0,-0.132 -2.302,0 0,0.132 c 0.616,0.028 0.715,0.132 0.715,0.702 l 0,3.007 c 0,0.549 -0.198,0.59 -0.715,0.625 l 0,0.131 4.365,0 L 0.74,2 0.535,2 C 0.411,2.618 0.198,2.729 -0.715,2.729 l -1.119,0 c -0.205,0 -0.262,-0.028 -0.262,-0.236 l 0,-1.542 1.192,0 c 0.674,0 0.822,0.139 0.904,0.66 l 0.19,0 L 0.19,0 0,0 z"
                   style="fill:#ffffff;fill-opacity:1;fill-rule:nonzero;stroke:none"
                   id="path306" />
              </g>
              <g
                 transform="translate(87.8369,109.4407)"
                 id="g308">
                <path
                   inkscape:connector-curvature="0"
                   d="m 0,0 -4.44,0 0,0.132 c 0.526,0.028 0.716,0.09 0.716,0.626 l 0,3.083 c 0,0.549 -0.198,0.59 -0.716,0.625 l 0,0.131 4.367,0 0.024,-0.993 -0.205,0 c -0.124,0.619 -0.338,0.73 -1.251,0.73 l -1.109,0 c -0.173,0 -0.272,0 -0.272,-0.236 l 0,-1.542 1.266,0 c 0.732,0 0.814,0.166 0.905,0.659 l 0.189,0 0,-1.61 -0.189,0 C -0.814,2.16 -0.937,2.257 -1.62,2.265 l -1.266,0.013 0,-1.721 c 0,-0.286 0,-0.293 1.225,-0.293 1.028,0 1.439,0.209 1.801,0.91 l 0.23,0 L 0,0 z"
                   style="fill:#ffffff;fill-opacity:1;fill-rule:nonzero;stroke:none"
                   id="path310" />
              </g>
              <g
                 transform="translate(93.2306,112.5731)"
                 id="g312">
                <path
                   inkscape:connector-curvature="0"
                   d="m 0,0 c -0.205,0.729 -0.797,1.285 -1.808,1.285 -0.412,0 -0.889,-0.139 -1.234,-0.424 -0.32,-0.265 -0.683,-0.709 -0.683,-1.708 0,-1.472 0.979,-2.077 2.015,-2.077 1.011,0 1.603,0.493 1.858,0.702 L 0.296,-2.348 C 0.288,-2.362 -0.419,-3.23 -1.932,-3.23 c -1.324,0 -2.746,0.667 -2.746,2.396 0,1.556 1.381,2.396 2.795,2.396 0.732,0 1.267,-0.228 1.447,-0.228 0.041,0 0.313,0 0.378,0.228 l 0.173,0 L 0.189,0 0,0 z"
                   style="fill:#ffffff;fill-opacity:1;fill-rule:nonzero;stroke:none"
                   id="path314" />
              </g>
              <g
                 transform="translate(97.5222,109.4407)"
                 id="g316">
                <path
                   inkscape:connector-curvature="0"
                   d="m 0,0 -2.401,0 0,0.132 c 0.749,0.028 0.773,0.188 0.773,0.701 l 0,3.473 -0.444,0 c -0.904,0 -1.126,-0.132 -1.307,-0.889 l -0.197,0 0.049,1.18 4.637,0 0.049,-1.18 -0.197,0 C 0.79,4.181 0.559,4.306 -0.345,4.306 l -0.444,0 0,-3.548 C -0.789,0.285 -0.691,0.153 0,0.132 L 0,0 z"
                   style="fill:#ffffff;fill-opacity:1;fill-rule:nonzero;stroke:none"
                   id="path318" />
              </g>
              <g
                 transform="translate(104.6262,113.9069)"
                 id="g320">
                <path
                   inkscape:connector-curvature="0"
                   d="m 0,0 c -0.633,-0.056 -0.772,-0.16 -0.772,-0.889 l 0,-1.813 c 0,-0.556 0,-1.862 -2.13,-1.862 -2.039,0 -2.039,1.355 -2.039,1.771 l 0,2.168 c 0,0.514 -0.115,0.59 -0.741,0.625 l 0,0.131 2.327,0 0,-0.131 c -0.649,-0.041 -0.748,-0.133 -0.748,-0.625 l 0,-2.223 c 0,-0.444 0,-1.41 1.431,-1.41 0.641,0 1.11,0.223 1.349,0.549 0.106,0.153 0.189,0.382 0.189,0.944 l 0,1.876 c 0,0.743 -0.198,0.861 -0.774,0.889 l 0,0.131 L 0,0.131 0,0 z"
                   style="fill:#ffffff;fill-opacity:1;fill-rule:nonzero;stroke:none"
                   id="path322" />
              </g>
              <g
                 transform="translate(110.1844,109.4407)"
                 id="g324">
                <path
                   inkscape:connector-curvature="0"
                   d="m 0,0 -1.324,0 -1.957,2.139 -0.46,-0.013 0,-1.368 c 0,-0.466 0.082,-0.598 0.74,-0.626 l 0,-0.132 -2.278,0 0,0.132 c 0.667,0.034 0.699,0.181 0.699,0.701 l 0,3.008 c 0,0.514 -0.123,0.576 -0.699,0.625 l 0,0.131 2.269,0 c 0.732,0 2.089,-0.145 2.089,-1.215 0,-0.93 -1.069,-1.097 -1.489,-1.167 L -0.716,0.459 C -0.535,0.271 -0.337,0.146 0,0.132 L 0,0 z m -3.741,2.382 c 0.69,0.007 1.924,0.021 1.924,1.015 0,0.923 -1.078,0.943 -1.414,0.943 -0.436,0 -0.51,-0.048 -0.51,-0.249 l 0,-1.709 z"
                   style="fill:#ffffff;fill-opacity:1;fill-rule:nonzero;stroke:none"
                   id="path326" />
              </g>
              <g
                 transform="translate(114.7885,109.4407)"
                 id="g328">
                <path
                   inkscape:connector-curvature="0"
                   d="m 0,0 -4.44,0 0,0.132 c 0.526,0.028 0.715,0.09 0.715,0.626 l 0,3.083 c 0,0.549 -0.197,0.59 -0.715,0.625 l 0,0.131 4.367,0 0.024,-0.993 -0.206,0 c -0.123,0.619 -0.337,0.73 -1.249,0.73 l -1.111,0 c -0.172,0 -0.271,0 -0.271,-0.236 l 0,-1.542 1.267,0 c 0.731,0 0.814,0.166 0.904,0.659 l 0.189,0 0,-1.61 -0.189,0 c -0.099,0.555 -0.222,0.652 -0.904,0.66 l -1.267,0.013 0,-1.721 c 0,-0.286 0,-0.293 1.225,-0.293 1.028,0 1.44,0.209 1.801,0.91 l 0.23,0 L 0,0 z"
                   style="fill:#ffffff;fill-opacity:1;fill-rule:nonzero;stroke:none"
                   id="path330" />
              </g>
              <g
                 transform="translate(117.4607,109.5725)"
                 id="g332">
                <path
                   inkscape:connector-curvature="0"
                   d="m 0,0 c 0.625,0.028 0.724,0.139 0.724,0.626 l 0,3.083 C 0.724,4.223 0.633,4.293 0,4.334 l 0,0.131 2.22,0 c 1.973,0 3.281,-0.756 3.281,-2.312 0,-0.923 -0.651,-2.285 -3.166,-2.285 L 0,-0.132 0,0 z m 1.562,0.41 c 0,-0.236 0.099,-0.285 0.493,-0.285 0.526,0 2.549,0 2.549,2.021 0,0.584 -0.197,1.146 -0.765,1.576 -0.394,0.3 -0.855,0.487 -1.891,0.487 -0.386,0 -0.386,-0.133 -0.386,-0.27 l 0,-3.529 z"
                   style="fill:#ffffff;fill-opacity:1;fill-rule:nonzero;stroke:none"
                   id="path334" />
              </g>
              <g
                 transform="translate(127.8036,109.4407)"
                 id="g336">
                <path
                   inkscape:connector-curvature="0"
                   d="m 0,0 -4.44,0 0,0.132 c 0.527,0.028 0.716,0.09 0.716,0.626 l 0,3.083 c 0,0.549 -0.198,0.59 -0.716,0.625 l 0,0.131 4.366,0 0.024,-0.993 -0.205,0 c -0.122,0.619 -0.337,0.73 -1.249,0.73 l -1.111,0 c -0.172,0 -0.271,0 -0.271,-0.236 l 0,-1.542 1.267,0 c 0.731,0 0.814,0.166 0.904,0.659 l 0.189,0 0,-1.61 -0.189,0 c -0.099,0.555 -0.222,0.652 -0.904,0.66 l -1.267,0.013 0,-1.721 c 0,-0.286 0,-0.293 1.226,-0.293 1.027,0 1.438,0.209 1.8,0.91 l 0.23,0 L 0,0 z"
                   style="fill:#ffffff;fill-opacity:1;fill-rule:nonzero;stroke:none"
                   id="path338" />
              </g>
              <g
                 transform="translate(130.4762,114.0379)"
                 id="g340">
                <path
                   inkscape:connector-curvature="0"
                   d="m 0,0 2.17,0 c 1.135,0 2.155,-0.367 2.155,-1.25 0,-0.541 -0.362,-0.826 -0.502,-0.937 -0.354,-0.285 -0.88,-0.41 -1.743,-0.41 -0.197,0 -0.354,0.007 -0.551,0.021 l 0,-1.264 c 0,-0.507 0.14,-0.611 0.774,-0.625 l 0,-0.132 -2.303,0 0,0.132 c 0.691,0.041 0.691,0.201 0.691,0.701 l 0,3.008 C 0.691,-0.264 0.6,-0.18 0,-0.131 L 0,0 z m 1.529,-2.298 c 0.156,-0.014 0.321,-0.021 0.493,-0.021 0.305,0 1.406,0 1.406,1.055 0,0.994 -1.2,1.007 -1.562,1.007 -0.247,0 -0.337,-0.007 -0.337,-0.236 l 0,-1.805 z"
                   style="fill:#ffffff;fill-opacity:1;fill-rule:nonzero;stroke:none"
                   id="path342" />
              </g>
              <g
                 transform="translate(135.1956,111.7327)"
                 id="g344">
                <path
                   inkscape:connector-curvature="0"
                   d="M 0,0 C 0,1.597 1.34,2.402 2.688,2.402 4.037,2.402 5.377,1.597 5.377,0 5.377,-1.479 4.177,-2.39 2.688,-2.39 1.2,-2.39 0,-1.479 0,0 m 4.439,0.007 c 0,1.583 -0.912,2.147 -1.751,2.147 -0.838,0 -1.751,-0.564 -1.751,-2.147 0,-1.528 0.839,-2.146 1.751,-2.146 0.913,0 1.751,0.618 1.751,2.146"
                   style="fill:#ffffff;fill-opacity:1;fill-rule:nonzero;stroke:none"
                   id="path346" />
              </g>
              <g
                 transform="translate(143.2693,113.9069)"
                 id="g348">
                <path
                   inkscape:connector-curvature="0"
                   d="m 0,0 c -0.559,-0.028 -0.765,-0.076 -0.765,-0.625 l 0,-3.285 c 0,-0.278 0.148,-0.285 0.831,-0.285 1.233,0 1.76,0.028 2.228,0.937 l 0.206,0 -0.395,-1.208 -4.423,0 0,0.132 c 0.525,0.027 0.715,0.09 0.715,0.625 l 0,3.084 c 0,0.549 -0.198,0.59 -0.715,0.625 l 0,0.131 L 0,0.131 0,0 z"
                   style="fill:#ffffff;fill-opacity:1;fill-rule:nonzero;stroke:none"
                   id="path350" />
              </g>
              <g
                 transform="translate(146.0234,109.5725)"
                 id="g352">
                <path
                   inkscape:connector-curvature="0"
                   d="m 0,0 c 0.699,0.014 0.797,0.132 0.797,0.626 l 0,3.083 C 0.797,4.223 0.683,4.306 0,4.334 l 0,0.131 2.442,0 0,-0.131 C 1.842,4.314 1.636,4.264 1.636,3.709 l 0,-3.083 C 1.636,0.083 1.833,0.014 2.442,0 l 0,-0.132 L 0,-0.132 0,0 z"
                   style="fill:#ffffff;fill-opacity:1;fill-rule:nonzero;stroke:none"
                   id="path354" />
              </g>
              <g
                 transform="translate(153.5222,112.5731)"
                 id="g356">
                <path
                   inkscape:connector-curvature="0"
                   d="m 0,0 c -0.206,0.729 -0.797,1.285 -1.809,1.285 -0.411,0 -0.887,-0.139 -1.233,-0.424 -0.321,-0.265 -0.682,-0.709 -0.682,-1.708 0,-1.472 0.977,-2.077 2.013,-2.077 1.011,0 1.604,0.493 1.859,0.702 L 0.296,-2.348 C 0.288,-2.362 -0.419,-3.23 -1.933,-3.23 c -1.323,0 -2.745,0.667 -2.745,2.396 0,1.556 1.38,2.396 2.795,2.396 0.732,0 1.266,-0.228 1.447,-0.228 0.041,0 0.312,0 0.378,0.228 l 0.173,0 L 0.189,0 0,0 z"
                   style="fill:#ffffff;fill-opacity:1;fill-rule:nonzero;stroke:none"
                   id="path358" />
              </g>
              <g
                 transform="translate(158.6364,109.4407)"
                 id="g360">
                <path
                   inkscape:connector-curvature="0"
                   d="m 0,0 -4.44,0 0,0.132 c 0.526,0.028 0.715,0.09 0.715,0.626 l 0,3.083 c 0,0.549 -0.197,0.59 -0.715,0.625 l 0,0.131 4.366,0 0.024,-0.993 -0.205,0 c -0.124,0.619 -0.338,0.73 -1.25,0.73 l -1.109,0 c -0.174,0 -0.272,0 -0.272,-0.236 l 0,-1.542 1.266,0 c 0.732,0 0.814,0.166 0.904,0.659 l 0.19,0 0,-1.61 -0.19,0 C -0.815,2.16 -0.938,2.257 -1.62,2.265 l -1.266,0.013 0,-1.721 c 0,-0.286 0,-0.293 1.224,-0.293 1.029,0 1.44,0.209 1.802,0.91 l 0.23,0 L 0,0 z"
                   style="fill:#ffffff;fill-opacity:1;fill-rule:nonzero;stroke:none"
                   id="path362" />
              </g>
              <path
                 inkscape:connector-curvature="0"
                 d="m 100.176,119.841 -36.29,0 0,-1.641 36.29,0 0,1.641 z"
                 style="fill:#ffffff;fill-opacity:1;fill-rule:nonzero;stroke:none"
                 id="path364" />
              <path
                 inkscape:connector-curvature="0"
                 d="m 122.231,119.841 -21.622,0 0,-1.641 21.622,0 0,1.641 z"
                 style="fill:#ffffff;fill-opacity:1;fill-rule:nonzero;stroke:none"
                 id="path366" />
              <path
                 inkscape:connector-curvature="0"
                 d="m 158.899,119.841 -36.169,0 0,-1.641 36.169,0 0,1.641 z"
                 style="fill:#ffffff;fill-opacity:1;fill-rule:nonzero;stroke:none"
                 id="path368" />
              <g
                 transform="translate(63.8865,117.0535)"
                 id="g370">
                <path
                   inkscape:connector-curvature="0"
                   d="m 0,0 0,-0.173 95.013,0 0,0.173 c 0,0 -13.903,0.393 -47.48,0.393 C 13.958,0.393 0,0 0,0"
                   style="fill:#ffffff;fill-opacity:1;fill-rule:nonzero;stroke:none"
                   id="path372" />
              </g>
              <g
                 transform="translate(63.8865,116.0638)"
                 id="g374">
                <path
                   inkscape:connector-curvature="0"
                   d="m 0,0 0,-0.183 95.013,0 0,0.183 c 0,0 -13.903,0.418 -47.48,0.418 C 13.958,0.418 0,0 0,0"
                   style="fill:#ffffff;fill-opacity:1;fill-rule:nonzero;stroke:none"
                   id="path376" />
              </g>
              <g
                 transform="translate(63.8865,115.1002)"
                 id="g378">
                <path
                   inkscape:connector-curvature="0"
                   d="m 0,0 0,-0.174 95.013,0 0,0.174 c 0,0 -13.903,0.399 -47.48,0.399 C 13.957,0.399 0,0 0,0"
                   style="fill:#ffffff;fill-opacity:1;fill-rule:nonzero;stroke:none"
                   id="path380" />
              </g>
              <g
                 transform="translate(96.9116,130.8188)"
                 id="g382">
                <path
                   inkscape:connector-curvature="0"
                   d="m 0,0 c -1.447,0 -2.619,1.118 -2.619,2.521 0,1.402 1.172,2.541 2.619,2.541 l 8.879,0 L 8.879,0 0,0 z M 9.283,-4.332 9.262,-9.171 c 0,-0.704 -1.248,-0.938 -1.248,-0.938 l 6.107,0 c 0,0 -0.697,0.197 -0.697,0.943 l 0,17.623 c 0,0.626 0.683,0.912 0.683,0.912 L 0,9.369 c -3.9,0 -7.06,-3.066 -7.06,-6.848 0,-3.783 3.16,-6.85 7.06,-6.85 l 9.283,-0.003 z"
                   style="fill:#ffffff;fill-opacity:1;fill-rule:nonzero;stroke:none"
                   id="path384" />
              </g>
              <g
                 transform="translate(116.9948,130.8188)"
                 id="g386">
                <path
                   inkscape:connector-curvature="0"
                   d="m 0,0 0,5.062 8.879,0 c 1.446,0 2.619,-1.139 2.619,-2.541 C 11.498,1.118 10.325,0 8.879,0 L 0,0 z m 8.879,-4.329 c 3.899,0 7.061,3.067 7.061,6.85 0,3.782 -3.162,6.848 -7.061,6.848 l -14.106,0 c 0,0 0.682,-0.286 0.682,-0.912 l 0,-17.623 c 0,-0.746 -0.697,-0.943 -0.697,-0.943 l 6.107,0 c 0,0 -1.248,0.234 -1.248,0.938 l -0.021,4.839 9.283,0.003 z"
                   style="fill:#ffffff;fill-opacity:1;fill-rule:nonzero;stroke:none"
                   id="path388" />
              </g>
              <g
                 transform="translate(131.3437,107.3027)"
                 id="g390">
                <path
                   inkscape:connector-curvature="0"
                   d="m 0,0 -40.958,0 c 0,0 -0.168,-6.087 0.32,-12.896 l -0.021,0 c 0.199,-2.867 0.512,-5.696 1.002,-8.336 0.208,-1.164 0.447,-2.28 0.723,-3.319 2.448,-9.218 5.921,-19.06 18.455,-27.603 12.534,8.543 16.008,18.385 18.455,27.603 0.274,1.032 0.512,2.141 0.719,3.297 0.492,2.647 0.807,5.485 1.005,8.358 l -0.02,0 C 0.168,-6.087 0,0 0,0 m -6.363,-1.544 c 0,0 0.233,-1.077 -0.463,-1.077 -0.695,0 -1.178,0.965 -1.178,0.965 0,0 1.307,-1.012 1.641,0.112 m 2.437,-7.145 c 0,0 1.307,-1.012 1.641,0.112 0,0 0.232,-1.075 -0.463,-1.075 -0.695,0 -1.178,0.963 -1.178,0.963 m 0.01,-1.422 -0.037,0 c -0.752,0.561 0.009,1.293 0.009,1.293 l 0.018,0 c 0,0 0.761,-0.732 0.01,-1.293 m 0.603,1.432 -1.242,0 c -0.226,0 -0.409,0.185 -0.409,0.414 0,0.227 0.183,0.411 0.409,0.411 l 1.242,0 c 0.225,0 0.407,-0.184 0.407,-0.411 0,-0.229 -0.182,-0.414 -0.407,-0.414 m -0.631,-0.01 c 0,0 -0.482,-0.963 -1.176,-0.963 -0.696,0 -0.465,1.075 -0.465,1.075 0.335,-1.124 1.641,-0.112 1.641,-0.112 m -1.48,-3.685 c 0,0 -0.936,2.157 -2.534,-0.558 l -0.089,0 c -1.597,2.715 -2.532,0.558 -2.532,0.558 -0.362,0.589 -0.056,1.566 0.751,1.566 0.785,0 1.25,-0.639 1.511,-1.223 -0.12,0.457 -0.231,1.03 -0.231,1.585 0,1.874 0.537,2.464 0.537,2.464 l 0.019,0 c 0,0 0.537,-0.59 0.537,-2.464 0,-0.555 -0.112,-1.128 -0.232,-1.585 0.261,0.584 0.726,1.223 1.512,1.223 0.806,0 1.113,-0.977 0.751,-1.566 m -31.608,3.685 c 0,0 -0.482,-0.963 -1.177,-0.963 -0.695,0 -0.463,1.075 -0.463,1.075 0.333,-1.124 1.64,-0.112 1.64,-0.112 m -1.02,0.424 c 0,0.227 0.183,0.411 0.409,0.411 l 1.242,0 c 0.225,0 0.407,-0.184 0.407,-0.411 0,-0.229 -0.182,-0.414 -0.407,-0.414 l -1.242,0 c -0.226,0 -0.409,0.185 -0.409,0.414 m 1.02,-0.553 0.019,0 c 0,0 0.76,-0.732 0.009,-1.293 l -0.038,0 c -0.75,0.561 0.01,1.293 0.01,1.293 m 0.019,0.129 c 0,0 1.307,-1.012 1.64,0.112 0,0 0.233,-1.075 -0.462,-1.075 -0.697,0 -1.178,0.963 -1.178,0.963 m 2.389,-2.166 c 0.786,0 1.251,-0.639 1.512,-1.224 -0.121,0.458 -0.232,1.031 -0.232,1.586 0,1.873 0.537,2.464 0.537,2.464 l 0.019,0 c 0,0 0.537,-0.591 0.537,-2.464 0,-0.555 -0.112,-1.128 -0.232,-1.585 0.261,0.584 0.727,1.223 1.512,1.223 0.806,0 1.113,-0.978 0.75,-1.567 0,0 -0.924,2.132 -2.504,-0.51 l -0.145,0 c -1.58,2.642 -2.505,0.51 -2.505,0.51 -0.362,0.589 -0.056,1.567 0.751,1.567 m 1.834,9.069 0.019,0 c 0,0 0.759,-0.731 0.009,-1.294 l -0.037,0 c -0.751,0.563 0.009,1.294 0.009,1.294 m 2.406,-6.791 c 0.333,-1.124 1.641,-0.112 1.641,-0.112 0,0 -0.483,-0.963 -1.178,-0.963 -0.695,0 -0.463,1.075 -0.463,1.075 m 0.621,0.312 c 0,0.227 0.182,0.411 0.407,0.411 l 1.243,0 c 0.225,0 0.408,-0.184 0.408,-0.411 0,-0.229 -0.183,-0.414 -0.408,-0.414 l -1.243,0 c -0.225,0 -0.407,0.185 -0.407,0.414 m 1.02,-0.553 0.018,0 c 0,0 0.76,-0.732 0.009,-1.293 l -0.037,0 c -0.75,0.561 0.01,1.293 0.01,1.293 m 0.018,0.129 c 0,0 1.307,-1.012 1.64,0.112 0,0 0.232,-1.075 -0.464,-1.075 -0.694,0 -1.176,0.963 -1.176,0.963 m 2.364,-2.158 c 0.784,0 1.249,-0.638 1.51,-1.222 -0.12,0.457 -0.231,1.029 -0.231,1.584 0,1.872 0.538,2.462 0.538,2.462 l 0.018,0 c 0,0 0.538,-0.59 0.538,-2.462 0,-0.556 -0.111,-1.129 -0.232,-1.587 0.261,0.585 0.726,1.225 1.512,1.225 0.806,0 1.112,-0.979 0.75,-1.57 0,0 -0.925,2.137 -2.508,-0.515 l -0.138,0 c -1.582,2.652 -2.509,0.515 -2.509,0.515 -0.36,0.591 -0.055,1.57 0.752,1.57 m 1.831,9.081 0.019,0 c 0,0 0.76,-0.731 0.009,-1.293 l -0.037,0 c -0.751,0.562 0.009,1.293 0.009,1.293 m 2.406,-6.894 c 0.334,-1.126 1.64,-0.113 1.64,-0.113 0,0 -0.482,-0.964 -1.177,-0.964 -0.695,0 -0.463,1.077 -0.463,1.077 m 0.62,0.31 c 0,0.228 0.182,0.411 0.409,0.411 l 1.241,0 c 0.226,0 0.41,-0.183 0.41,-0.411 0,-0.227 -0.184,-0.413 -0.41,-0.413 l -1.241,0 c -0.227,0 -0.409,0.186 -0.409,0.413 m 1.02,-0.552 0.019,0 c 0,0 0.76,-0.732 0.01,-1.294 l -0.038,0 c -0.751,0.562 0.009,1.294 0.009,1.294 m 0.019,0.129 c 0,0 1.307,-1.013 1.641,0.113 0,0 0.231,-1.077 -0.464,-1.077 -0.695,0 -1.177,0.964 -1.177,0.964 m 2.373,-2.074 c 0.786,0 1.251,-0.642 1.513,-1.227 -0.121,0.458 -0.233,1.032 -0.233,1.589 0,1.872 0.538,2.462 0.538,2.462 l 0.018,0 c 0,0 0.538,-0.59 0.538,-2.462 0,-0.555 -0.112,-1.128 -0.232,-1.585 0.262,0.584 0.727,1.223 1.511,1.223 0.806,0 1.112,-0.979 0.752,-1.57 0,0 -0.928,2.137 -2.51,-0.515 l -0.137,0 c -1.583,2.652 -2.509,0.515 -2.509,0.515 -0.361,0.591 -0.055,1.57 0.751,1.57 m 1.832,9.081 0.019,0 c 0,0 0.759,-0.731 0.008,-1.293 l -0.036,0 c -0.752,0.562 0.009,1.293 0.009,1.293 m 2.406,-6.894 c 0.333,-1.126 1.641,-0.113 1.641,-0.113 0,0 -0.483,-0.964 -1.178,-0.964 -0.695,0 -0.463,1.077 -0.463,1.077 m 0.62,0.31 c 0,0.228 0.183,0.411 0.409,0.411 l 1.242,0 c 0.225,0 0.408,-0.183 0.408,-0.411 0,-0.227 -0.183,-0.413 -0.408,-0.413 l -1.242,0 c -0.226,0 -0.409,0.186 -0.409,0.413 m 1.021,-0.552 0.018,0 c 0,0 0.761,-0.732 0.01,-1.294 l -0.037,0 c -0.752,0.562 0.009,1.294 0.009,1.294 m 0.018,0.129 c 0,0 1.306,-1.013 1.64,0.113 0,0 0.233,-1.077 -0.462,-1.077 -0.697,0 -1.178,0.964 -1.178,0.964 m 4.172,6.987 0.019,0 c 0,0 0.76,-0.731 0.011,-1.294 l -0.038,0 c -0.751,0.563 0.008,1.294 0.008,1.294 m -0.568,1.036 1.243,0 c 0.224,0 0.407,-0.185 0.407,-0.413 0,-0.228 -0.183,-0.413 -0.407,-0.413 l -1.243,0 c -0.226,0 -0.409,0.185 -0.409,0.413 0,0.228 0.183,0.413 0.409,0.413 m -1.071,-0.794 c 0.333,-1.124 1.639,-0.112 1.639,-0.112 0,0 -0.481,-0.965 -1.176,-0.965 -0.696,0 -0.463,1.077 -0.463,1.077 m -2.857,-5.381 c -0.121,0.457 -0.232,1.028 -0.232,1.582 0,1.874 0.538,2.464 0.538,2.464 l 0.018,0 c 0,0 0.538,-0.59 0.538,-2.464 0,-0.553 -0.11,-1.123 -0.23,-1.579 0.261,0.582 0.726,1.217 1.509,1.217 0.807,0 1.112,-0.978 0.751,-1.567 0,0 -0.946,2.181 -2.558,-0.599 0,0 0.003,0.018 0.009,0.05 -0.006,-0.015 -0.009,-0.024 -0.009,-0.024 l -0.037,0 c 0,0 -0.004,0.009 -0.01,0.024 0.007,-0.032 0.01,-0.05 0.01,-0.05 -1.613,2.78 -2.56,0.599 -2.56,0.599 -0.362,0.589 -0.055,1.567 0.752,1.567 0.784,0 1.249,-0.637 1.511,-1.22 m -2.082,5.401 c 0,0 0.232,-1.076 -0.463,-1.076 -0.697,0 -1.177,0.965 -1.177,0.965 0,0 1.306,-1.013 1.64,0.111 m -2.26,0.774 1.242,0 c 0.225,0 0.408,-0.184 0.408,-0.412 0,-0.227 -0.183,-0.412 -0.408,-0.412 l -1.242,0 c -0.225,0 -0.408,0.185 -0.408,0.412 0,0.228 0.183,0.412 0.408,0.412 m -1.04,-0.774 c 0.334,-1.124 1.641,-0.111 1.641,-0.111 0,0 -0.483,-0.965 -1.177,-0.965 -0.696,0 -0.464,1.076 -0.464,1.076 m -2.889,-5.401 c -0.12,0.457 -0.231,1.028 -0.231,1.582 0,1.874 0.537,2.464 0.537,2.464 l 0.019,0 c 0,0 0.537,-0.59 0.537,-2.464 0,-0.554 -0.111,-1.126 -0.231,-1.583 0.261,0.583 0.726,1.221 1.511,1.221 0.806,0 1.112,-0.978 0.75,-1.567 0,0 -0.945,2.181 -2.557,-0.599 0,0 0.003,0.018 0.01,0.05 -0.006,-0.015 -0.01,-0.024 -0.01,-0.024 l -0.038,0 c 0,0 -0.003,0.009 -0.009,0.024 0.007,-0.032 0.009,-0.05 0.009,-0.05 -1.612,2.78 -2.558,0.599 -2.558,0.599 -0.362,0.589 -0.057,1.567 0.75,1.567 0.785,0 1.25,-0.637 1.511,-1.22 m -2.081,5.401 c 0,0 0.232,-1.076 -0.463,-1.076 -0.695,0 -1.177,0.965 -1.177,0.965 0,0 1.306,-1.013 1.64,0.111 m -2.202,0.774 1.242,0 c 0.225,0 0.407,-0.185 0.407,-0.413 0,-0.228 -0.182,-0.413 -0.407,-0.413 l -1.242,0 c -0.226,0 -0.409,0.185 -0.409,0.413 0,0.228 0.183,0.413 0.409,0.413 m -1.097,-0.774 c 0.333,-1.124 1.64,-0.111 1.64,-0.111 0,0 -0.481,-0.965 -1.177,-0.965 -0.695,0 -0.463,1.076 -0.463,1.076 m -2.879,-5.32 c -0.121,0.457 -0.232,1.03 -0.232,1.585 0,1.874 0.538,2.464 0.538,2.464 l 0.018,0 c 0,0 0.537,-0.59 0.537,-2.464 0,-0.555 -0.112,-1.128 -0.232,-1.586 0.261,0.584 0.726,1.224 1.512,1.224 0.807,0 1.112,-0.978 0.751,-1.567 0,0 -0.946,2.182 -2.559,-0.6 0,0 0.003,0.019 0.01,0.054 -0.006,-0.016 -0.01,-0.026 -0.01,-0.026 l -0.037,0 c 0,0 -0.004,0.01 -0.01,0.026 0.007,-0.035 0.01,-0.054 0.01,-0.054 -1.613,2.782 -2.559,0.6 -2.559,0.6 -0.361,0.589 -0.055,1.567 0.751,1.567 0.785,0 1.251,-0.639 1.512,-1.223 m -2.082,5.3 c 0,0 0.233,-1.077 -0.463,-1.077 -0.696,0 -1.177,0.965 -1.177,0.965 0,0 1.307,-1.012 1.64,0.112 m -2.282,0.794 1.243,0 c 0.224,0 0.407,-0.184 0.407,-0.412 0,-0.227 -0.183,-0.412 -0.407,-0.412 l -1.243,0 c -0.225,0 -0.408,0.185 -0.408,0.412 0,0.228 0.183,0.412 0.408,0.412 m -1.017,-0.794 c 0.333,-1.124 1.64,-0.112 1.64,-0.112 0,0 -0.482,-0.965 -1.177,-0.965 -0.695,0 -0.463,1.077 -0.463,1.077 m -4.419,-4.077 c 0.786,0 1.251,-0.639 1.512,-1.223 -0.121,0.457 -0.232,1.03 -0.232,1.585 0,1.874 0.537,2.464 0.537,2.464 l 0.019,0 c 0,0 0.537,-0.59 0.537,-2.464 0,-0.555 -0.111,-1.128 -0.232,-1.585 0.261,0.584 0.726,1.223 1.512,1.223 0.806,0 1.113,-0.978 0.751,-1.567 0,0 -0.946,2.182 -2.559,-0.6 0,0 0.003,0.019 0.01,0.054 -0.006,-0.016 -0.01,-0.026 -0.01,-0.026 l -0.038,0 c 0,0 -0.004,0.01 -0.01,0.026 0.007,-0.035 0.01,-0.054 0.01,-0.054 -1.612,2.782 -2.558,0.6 -2.558,0.6 -0.362,0.589 -0.056,1.567 0.751,1.567 m 5.268,-31.1 c 0.503,-0.739 1.076,-1.168 1.828,-1.393 l 0.981,-0.217 -0.01,-0.528 c -0.072,-0.917 -0.54,-1.358 -0.642,-1.444 -0.807,1.186 -1.521,2.382 -2.157,3.582 m 2.168,-3.599 c 0.912,0.005 0.959,0.256 1.456,0.785 0.379,-0.404 0.947,-0.701 1.609,-0.823 l -0.016,-0.293 c 0,-0.809 -0.634,-1.789 -1.436,-1.863 -0.577,0.728 -1.113,1.459 -1.613,2.194 m 10.675,4.758 c 0,0 -5.562,0.226 -4.254,3.632 1.076,-1.274 2.465,-2.516 4.254,-3.632 m -3.412,17.411 c 0.583,0.312 1.198,0.624 1.836,0.921 -0.052,-0.534 -0.235,-1.676 -0.872,-1.805 -0.63,-0.128 -0.879,0.547 -0.964,0.884 m 6.607,-17.961 c 0,0 -0.896,-1.122 -2.999,-1.122 -2.104,0 -2.86,1.122 -2.86,1.122 0,0 1.386,-0.428 2.88,-0.428 1.494,0 2.979,0.428 2.979,0.428 m -2.786,18.763 0.011,0.966 c 0.193,0.074 0.388,0.145 0.583,0.214 -0.088,-0.257 -0.284,-0.76 -0.594,-1.18 m 3.398,-4.815 4.703,-8.162 -0.277,0 0,-0.683 -0.613,0 0,0.683 -0.917,0 -3.553,6.313 c 0.201,0.63 0.423,1.249 0.657,1.849 m -0.264,6.718 c 0.864,0.182 1.724,0.29 2.557,0.298 -0.172,-0.337 -0.638,-1.101 -1.371,-1.188 -0.753,-0.09 -1.083,0.603 -1.186,0.89 m -0.917,-29.227 c -0.846,0 -1.532,1.027 -1.532,1.866 l -0.016,0.321 c 0.643,0.127 1.194,0.42 1.564,0.815 0.361,-0.384 0.892,-0.671 1.511,-0.804 l -0.003,-0.005 -0.012,-0.371 c 0,-0.749 -0.619,-1.703 -1.454,-1.822 -0.015,0 -0.023,0 -0.027,-10e-4 0.005,10e-4 0.011,10e-4 -0.031,10e-4 m -2.386,-2.174 c -0.846,0 -1.533,1.028 -1.533,1.867 l -0.018,0.311 c 0.64,0.128 1.188,0.421 1.558,0.813 0.37,-0.394 0.922,-0.688 1.565,-0.815 l -0.018,-0.34 c 0,-0.75 -0.594,-1.753 -1.488,-1.831 -0.09,-0.002 0.034,-0.005 -0.066,-0.005 m -2.364,2.174 c -0.847,0 -1.533,1.027 -1.533,1.866 l -0.017,0.311 c 0.665,0.121 1.236,0.42 1.617,0.825 0.358,-0.384 0.889,-0.671 1.509,-0.804 l -0.003,-0.005 -0.019,-0.357 c 0,-0.746 -0.594,-1.707 -1.488,-1.836 -0.012,0 -0.02,-10e-4 -0.026,-10e-4 -0.004,-10e-4 -0.021,-10e-4 0,0 0.005,10e-4 10e-4,10e-4 -0.04,10e-4 m 4.056,13.919 c 0,1.708 0.33,3.539 0.33,3.539 l 1.633,-3.111 0,-2.481 0.611,0 c 0.209,-0.121 0.024,-0.966 -0.886,-0.962 l -1.688,3.015 z m 1.252,-2.956 c -0.113,0.029 -0.233,0.068 -0.362,0.12 -0.553,0.22 -0.79,1.055 -0.864,2.049 l 1.226,-2.169 z m 1.155,3.384 -1.965,3.672 c 0.155,0.715 0.346,1.427 0.564,2.123 l 3.348,-5.795 -0.288,0 0,-0.683 -0.768,0 0,0.683 -0.891,0 z m -0.07,-8.102 c 0.162,-1.066 -0.643,-1.873 -1.504,-1.957 0,0 -1.198,-0.035 -1.475,1.082 0,0 1.547,0.109 2.979,0.875 m -2.426,-1.93 -0.016,-0.293 c 0,-0.841 -0.675,-1.868 -1.521,-1.868 l -0.012,0 c -0.847,0 -1.504,1.057 -1.504,1.897 l -0.016,0.296 c 0.597,0.136 1.108,0.418 1.458,0.791 0.379,-0.404 0.948,-0.702 1.611,-0.823 m -1.636,1.754 c -1.761,0 -2.395,0.94 -2.395,0.94 0,0 1.16,-0.359 2.412,-0.359 1.252,0 2.495,0.359 2.495,0.359 0,0 -0.751,-0.94 -2.512,-0.94 m -1.026,-0.699 c -0.276,-1.117 -1.474,-1.082 -1.474,-1.082 -0.861,0.084 -1.666,0.891 -1.504,1.957 1.432,-0.766 2.978,-0.875 2.978,-0.875 m -2.04,-1.055 -0.015,-0.293 c 0,-0.841 -0.686,-1.868 -1.533,-1.868 l -0.025,-0.002 c -0.846,0 -1.529,1.059 -1.529,1.899 l -0.015,0.285 c 0.618,0.133 1.149,0.419 1.508,0.802 0.379,-0.404 0.948,-0.701 1.609,-0.823 m 6.35,-0.264 -0.015,0.268 c 0.652,0.125 1.212,0.42 1.587,0.819 0.378,-0.404 0.947,-0.702 1.61,-0.823 l -0.016,-0.293 c 0,-0.841 -0.686,-1.868 -1.533,-1.868 l -0.106,-0.002 c -0.847,0 -1.527,1.059 -1.527,1.899 m 2.51,1.757 -0.105,0.909 c 0,0 0.676,0.464 1.04,0.91 0,0 0.567,-0.8 2.13,-1.197 0,0 -0.03,-0.42 -0.056,-0.622 -0.161,-0.743 -0.767,-1.492 -1.49,-1.492 l -0.034,-0.007 c -0.733,0 -1.295,0.695 -1.485,1.499 m -3.832,21.966 c -0.858,-0.173 -1.054,0.457 -1.099,0.754 0.795,0.277 1.601,0.512 2.404,0.684 -0.09,-0.348 -0.409,-1.258 -1.305,-1.438 m -2.169,-0.881 c -0.15,-0.117 -0.317,-0.205 -0.5,-0.243 -0.753,-0.161 -0.97,0.45 -1.032,0.814 0.499,0.231 1.011,0.454 1.532,0.662 l 0,-1.233 z m -4.561,-2.267 c -0.754,-0.241 -0.998,0.29 -1.076,0.615 0.644,0.396 1.376,0.825 2.171,1.252 -0.054,-0.475 -0.266,-1.602 -1.095,-1.867 m -0.624,-17.909 -0.105,-0.909 c -0.19,-0.804 -0.751,-1.499 -1.485,-1.499 l -0.033,0.007 c -0.723,0 -1.329,0.749 -1.49,1.492 -0.027,0.202 -0.056,0.622 -0.056,0.622 1.562,0.397 2.13,1.197 2.13,1.197 0.363,-0.446 1.039,-0.91 1.039,-0.91 m 6.053,-12.736 c -0.195,-0.129 -0.391,-0.257 -0.59,-0.383 -0.393,0.248 -0.777,0.504 -1.153,0.764 -3.392,2.5 -6.043,5.1 -8.155,7.756 0.92,0.015 1.729,0.36 2.221,0.884 0.36,-0.384 0.891,-0.671 1.51,-0.804 l -0.003,-0.005 -0.019,-0.357 c 0,-0.839 -0.686,-1.866 -1.533,-1.866 l 0.068,-0.037 c 0.944,0 1.778,0.35 2.281,0.884 0.371,-0.394 0.923,-0.688 1.566,-0.815 l -0.019,-0.34 c 0,-0.839 -0.685,-1.866 -1.533,-1.866 l 0.069,-0.038 c 0.944,0 1.778,0.35 2.28,0.885 0.368,-0.392 0.915,-0.684 1.551,-0.812 l -0.006,-0.012 -0.02,-0.358 c 0,-0.84 -0.686,-1.866 -1.533,-1.866 l 0.069,-0.038 c 0.944,0 1.778,0.35 2.281,0.885 0.502,-0.535 1.336,-0.885 2.28,-0.885 l 0.42,0.057 c -0.846,0 -1.852,1.037 -1.852,1.877 l -0.019,0.334 c 0.65,0.125 1.208,0.42 1.582,0.818 0.501,-0.535 1.335,-0.885 2.28,-0.885 l 0.1,0.068 c -0.846,0 -1.533,1.028 -1.533,1.867 l -0.017,0.322 c 0.617,0.133 1.146,0.42 1.505,0.802 0.503,-0.534 1.337,-0.884 2.281,-0.884 l 0.1,0.067 c -0.845,0 -1.532,1.027 -1.532,1.866 l -0.016,0.298 c 0.698,0.112 1.299,0.417 1.694,0.838 0.502,-0.535 1.133,-0.861 2.076,-0.861 0,0 -1.448,0.757 -1.298,1.91 l 0.055,0.27 c 0.649,0.126 1.204,0.42 1.577,0.817 0.5,-0.532 0.383,-0.783 1.31,-0.786 -2.43,-3.569 -5.713,-7.06 -10.325,-10.371 m 10.331,10.38 c -0.075,0.067 -0.569,0.544 -0.517,1.453 l 0.053,0 0.846,0.753 c 0.698,0.215 1.24,0.609 1.717,1.267 -0.622,-1.163 -1.316,-2.322 -2.099,-3.473 m 6.713,15.987 c -1.039,-3.917 -2.259,-7.923 -4.284,-11.883 l -1.085,0 -0.018,0 c 0,0 -0.806,-1.94 -2.549,-1.94 -0.194,0 -0.38,0.028 -0.556,0.076 -0.522,0.213 -1.014,0.574 -1.409,0.923 -0.447,0.483 -0.722,0.988 -0.796,1.133 0.781,1.265 1.129,2.31 1.129,2.31 l 0.778,0 0,0.899 0.669,0 0,2.481 -0.834,0 -4.968,8.617 c 1.345,3.289 3.012,5.915 3.387,6.491 0.214,-0.027 0.426,-0.063 0.634,-0.107 l 0.056,0.45 c 0,0 -2.605,0.824 -7.641,-1.038 l 0.021,1.937 -0.39,0 0,-0.451 c 0,0 -2.461,0.626 -3.06,-0.842 -0.389,-0.955 -2.169,1.125 -3.337,-0.73 -1.168,-1.856 -1.78,-2.024 -2.392,-2.024 0,0 1.669,-0.563 3.06,0.787 1.39,1.348 1.333,-0.573 3.393,1.181 1.056,0.899 2.28,0.337 2.28,0.337 l 0,-0.357 c -2.318,-0.903 -5.122,-2.364 -8.399,-4.703 l 0,-0.505 c 0,0 0.207,0.156 0.58,0.419 -0.111,-1.058 -0.338,-5.251 2.379,-9.462 l -1.624,0 0,-0.683 -0.612,0 0,0.683 -1.557,0 0,-2.481 0.666,0 0,-0.899 0.78,0 c 0,0 0.345,-1.037 1.119,-2.293 -0.064,-0.127 -0.376,-0.715 -0.894,-1.244 -0.366,-0.311 -0.804,-0.62 -1.266,-0.814 -0.192,-0.058 -0.396,-0.091 -0.61,-0.091 -1.742,0 -2.549,1.94 -2.549,1.94 l -1.123,0 c -2.025,3.96 -3.245,7.966 -4.285,11.883 -0.721,2.718 -1.267,6.332 -1.608,10.611 l 19.281,0 19.243,0 c -0.342,-4.279 -0.887,-7.893 -1.609,-10.611 m -23.645,4.834 c -0.108,-0.443 -0.381,-1.269 -0.942,-1.512 -0.536,-0.232 -0.703,0.149 -0.755,0.408 0.441,0.302 1.018,0.683 1.697,1.104 m 25.113,12.303 c 0,0 -0.946,2.182 -2.558,-0.6 l -0.037,0 c -1.614,2.782 -2.558,0.6 -2.558,0.6 -0.362,0.589 -0.057,1.567 0.75,1.567 0.784,0 1.249,-0.636 1.51,-1.219 -0.12,0.457 -0.231,1.028 -0.231,1.581 0,1.874 0.538,2.464 0.538,2.464 l 0.018,0 c 0,0 0.538,-0.59 0.538,-2.464 0,-0.555 -0.112,-1.128 -0.232,-1.586 0.261,0.585 0.726,1.224 1.511,1.224 0.807,0 1.112,-0.978 0.751,-1.567"
                   style="fill:#ffffff;fill-opacity:1;fill-rule:nonzero;stroke:none"
                   id="path392" />
              </g>
            </g>
          </g>
        </g>
      </g>
    </g>
  </g>
</svg>
