<?xml version="1.0" encoding="UTF-8" standalone="no"?>
<!-- Created with Inkscape (http://www.inkscape.org/) -->

<svg
   xmlns:dc="http://purl.org/dc/elements/1.1/"
   xmlns:cc="http://creativecommons.org/ns#"
   xmlns:rdf="http://www.w3.org/1999/02/22-rdf-syntax-ns#"
   xmlns:svg="http://www.w3.org/2000/svg"
   xmlns="http://www.w3.org/2000/svg"
   xmlns:sodipodi="http://sodipodi.sourceforge.net/DTD/sodipodi-0.dtd"
   xmlns:inkscape="http://www.inkscape.org/namespaces/inkscape"
   width="210mm"
   height="297mm"
   id="svg4920"
   version="1.1"
   inkscape:version="0.48.5 r10040"
   sodipodi:docname="Nouveau document 3">
  <defs
     id="defs4922">
    <clipPath
       clipPathUnits="userSpaceOnUse"
       id="clipPath118">
      <path
         inkscape:connector-curvature="0"
         d="m 82.913,69.969 153.071,0 0,53.291 -153.071,0 0,-53.291 z"
         id="path120" />
    </clipPath>
  </defs>
  <sodipodi:namedview
     id="base"
     pagecolor="#ffffff"
     bordercolor="#666666"
     borderopacity="1.0"
     inkscape:pageopacity="0.0"
     inkscape:pageshadow="2"
     inkscape:zoom="3.959798"
     inkscape:cx="613.61822"
     inkscape:cy="235.95093"
     inkscape:document-units="px"
     inkscape:current-layer="layer1"
     showgrid="false"
     inkscape:window-width="1871"
     inkscape:window-height="1056"
     inkscape:window-x="49"
     inkscape:window-y="24"
     inkscape:window-maximized="1" />
  <metadata
     id="metadata4925">
    <rdf:RDF>
      <cc:Work
         rdf:about="">
        <dc:format>image/svg+xml</dc:format>
        <dc:type
           rdf:resource="http://purl.org/dc/dcmitype/StillImage" />
        <dc:title></dc:title>
      </cc:Work>
    </rdf:RDF>
  </metadata>
  <g
     inkscape:label="Calque 1"
     inkscape:groupmode="layer"
     id="layer1">
    <g
       id="g218"
       transform="matrix(1.25,0,0,-1.25,575.37088,826.2324)" />
    <g
       id="g932"
       transform="matrix(1.25,0,0,-1.25,571.98413,805.60453)" />
    <g
       id="g7339">
      <g
         transform="matrix(1.25,0,0,-1.25,585.26917,780.56205)"
         id="g1236">
        <path
           id="path1238"
           style="fill:#3a3898;fill-opacity:1;fill-rule:nonzero;stroke:none"
           d="M 0,0 0.527,-0.012 0.291,0.801 0,0 z"
           inkscape:connector-curvature="0" />
      </g>
      <g
         transform="matrix(1.25,0,0,-1.25,599.7258,784.54593)"
         id="g1240">
        <path
           id="path1242"
           style="fill:#3a3898;fill-opacity:1;fill-rule:nonzero;stroke:none"
           d="m 0,0 -0.775,-0.907 c -0.138,-0.162 -0.105,-0.319 0.008,-0.415 0.113,-0.097 0.274,-0.105 0.412,0.056 L 0.42,-0.359 C 0.558,-0.197 0.527,-0.037 0.414,0.059 0.301,0.156 0.138,0.161 0,0"
           inkscape:connector-curvature="0" />
      </g>
      <g
         transform="matrix(1.25,0,0,-1.25,578.53492,780.01305)"
         id="g1244">
        <path
           id="path1246"
           style="fill:#3a3898;fill-opacity:1;fill-rule:nonzero;stroke:none"
           d="m 0,0 c -0.074,0.053 -0.193,0.078 -0.323,0.038 -0.13,-0.04 -0.213,-0.129 -0.245,-0.214 -0.038,-0.105 -0.049,-0.215 0.115,-0.742 0.164,-0.527 0.233,-0.608 0.324,-0.673 0.074,-0.052 0.195,-0.082 0.324,-0.041 0.021,0.006 0.037,0.011 0.056,0.021 l -0.24,0.126 0.249,0.473 0.181,-0.095 C 0.419,-1.008 0.386,-0.871 0.326,-0.677 0.162,-0.15 0.091,-0.065 0,0"
           inkscape:connector-curvature="0" />
      </g>
      <g
         transform="matrix(1.25,0,0,-1.25,593.06329,782.08356)"
         id="g1248">
        <path
           id="path1250"
           style="fill:#3a3898;fill-opacity:1;fill-rule:nonzero;stroke:none"
           d="M 0,0 0.047,0.845 -0.492,0.186 0,0 z"
           inkscape:connector-curvature="0" />
      </g>
      <g
         transform="matrix(1.25,0,0,-1.25,602.78592,789.99431)"
         id="g1252">
        <path
           id="path1254"
           style="fill:#3a3898;fill-opacity:1;fill-rule:nonzero;stroke:none"
           d="m 0,0 c -0.187,-0.125 -0.208,-0.308 -0.114,-0.449 0.094,-0.142 0.271,-0.192 0.458,-0.067 0.188,0.125 0.209,0.308 0.114,0.449 C 0.364,0.074 0.187,0.125 0,0"
           inkscape:connector-curvature="0" />
      </g>
      <g
         transform="matrix(1.25,0,0,-1.25,604.08967,789.89068)"
         id="g1256">
        <path
           id="path1258"
           style="fill:#3a3898;fill-opacity:1;fill-rule:nonzero;stroke:none"
           d="m 0,0 c 0.205,-0.307 0.187,-0.846 -0.312,-1.179 -0.534,-0.356 -1.066,-0.155 -1.368,0.298 -0.302,0.452 -0.284,1.022 0.25,1.378 0.258,0.172 0.578,0.206 0.892,0.248 L 0.782,0.925 1.207,0.289 -0.112,0.13 C -0.061,0.092 -0.026,0.039 0,0 m -2.466,-12.681 -2.409,-0.801 c -1.079,-0.269 -2.099,-0.332 -3.125,-0.195 -0.118,0.015 -0.235,0.034 -0.353,0.055 l 0,5.595 2.321,0 -9.434,9.655 -9.688,-9.688 2.31,0 0.034,-4.849 c -2.107,-0.325 -3.964,-0.107 -5.85,0.682 -0.127,0.745 -0.192,1.504 -0.192,2.259 0,2.244 0.572,4.465 1.653,6.423 0.273,0.495 0.583,0.979 0.921,1.441 2.509,3.424 6.531,5.468 10.758,5.468 4.215,0 8.231,-2.035 10.741,-5.443 0.336,-0.456 0.647,-0.94 0.924,-1.439 1.091,-1.965 1.668,-4.195 1.668,-6.45 0,-0.91 -0.094,-1.823 -0.279,-2.713 m -0.932,-2.834 -1.479,-0.505 c -0.166,-0.041 -0.331,-0.077 -0.495,-0.109 -0.811,-0.156 -1.609,-0.194 -2.391,-0.114 -0.198,0.021 -0.396,0.048 -0.59,0.083 l 0,1.009 c 0.472,-0.071 0.945,-0.106 1.408,-0.106 l 0.208,0.003 c 0.742,0.016 1.499,0.12 2.265,0.312 l 1.512,0.502 c -0.131,-0.365 -0.277,-0.725 -0.438,-1.075 m -1.019,-10.333 -1.506,1.973 1.342,1.024 0.329,-0.433 -0.856,-0.653 0.252,-0.33 0.731,0.558 0.33,-0.432 -0.731,-0.558 0.264,-0.346 0.856,0.653 0.33,-0.432 -1.341,-1.024 z m -1.004,-0.664 c -0.249,-0.149 -0.488,-0.178 -0.736,-0.116 -0.359,0.09 -0.53,0.394 -0.722,0.714 -0.192,0.32 -0.38,0.614 -0.291,0.973 0.062,0.248 0.2,0.445 0.448,0.594 0.282,0.169 0.502,0.175 0.731,0.118 l -0.138,-0.555 c -0.11,0.027 -0.193,0.043 -0.312,-0.029 -0.096,-0.057 -0.142,-0.138 -0.15,-0.212 -0.01,-0.091 0.002,-0.186 0.236,-0.575 0.233,-0.388 0.311,-0.443 0.396,-0.477 0.07,-0.028 0.162,-0.025 0.258,0.032 0.119,0.072 0.144,0.152 0.172,0.262 l 0.555,-0.139 c -0.058,-0.229 -0.167,-0.421 -0.447,-0.59 m -1.827,-0.967 -1.235,0.816 0.508,-1.14 -0.557,-0.249 -1.011,2.268 0.487,0.217 1.235,-0.816 -0.509,1.14 0.558,0.248 1.011,-2.267 -0.487,-0.217 z m -2.321,-0.922 -0.215,0.322 -0.731,-0.215 -0.013,-0.389 -0.612,-0.179 0.166,2.633 0.451,0.132 1.565,-2.124 -0.611,-0.18 z m -2.51,-0.622 -0.58,0.842 -0.203,-0.033 0.146,-0.911 -0.602,-0.097 -0.392,2.45 0.97,0.155 c 0.544,0.087 0.898,-0.251 0.962,-0.654 0.054,-0.333 -0.119,-0.576 -0.296,-0.704 l 0.693,-0.937 -0.698,-0.111 z m -2.941,1.207 0.92,0.035 0.02,-0.544 -0.92,-0.035 0.036,-0.958 -0.609,-0.023 -0.094,2.481 1.686,0.064 0.021,-0.544 -1.077,-0.04 0.017,-0.436 z m -2.323,4.642 c 1.046,0.179 2.066,0.158 3.089,-0.064 -1.028,-0.098 -2.065,-0.076 -3.089,0.064 m 1.257,-5.391 -1.141,0.068 0.032,0.536 1.141,-0.068 -0.032,-0.536 z m -1.37,1.261 -1.063,0.172 -0.066,-0.41 0.908,-0.146 -0.087,-0.538 -0.908,0.148 -0.07,-0.43 1.064,-0.172 -0.087,-0.537 -1.666,0.269 0.397,2.45 1.665,-0.269 -0.087,-0.537 z m -2.784,4.869 c -0.457,0.174 -0.908,0.374 -1.345,0.599 0.803,0.178 1.647,0.426 2.563,0.753 2.521,0.9 4.759,0.741 7.193,-0.51 0.495,-0.259 0.992,-0.48 1.483,-0.66 -0.349,-0.147 -0.704,-0.28 -1.061,-0.396 -1.54,0.749 -3.026,1.114 -4.54,1.114 -1.171,0 -2.343,-0.215 -3.585,-0.658 -0.243,-0.088 -0.478,-0.168 -0.708,-0.242 m 0.565,-5.197 c -0.109,-0.375 -0.168,-0.689 -0.527,-0.885 -0.211,-0.116 -0.463,-0.12 -0.71,-0.047 l -0.884,0.257 0.695,2.383 0.883,-0.257 c 0.248,-0.072 0.458,-0.21 0.574,-0.422 0.197,-0.359 0.078,-0.654 -0.031,-1.029 m -2.373,0.235 -1.057,0.433 0.203,0.496 1.057,-0.433 -0.203,-0.496 z m -1.485,0.867 -0.811,0.435 -0.206,-0.384 0.949,-0.509 -0.256,-0.479 -1.487,0.796 1.171,2.187 1.487,-0.796 -0.257,-0.479 -0.949,0.508 -0.196,-0.365 0.811,-0.435 -0.256,-0.479 z m -2.263,0.131 -1.358,0.94 1.412,2.04 0.501,-0.347 -1.102,-1.593 0.857,-0.593 -0.31,-0.447 z m -2.316,1.726 1.585,1.911 0.47,-0.39 -1.586,-1.911 -0.469,0.39 z m 5.319,9.224 c -0.834,-0.132 -1.615,-0.176 -2.383,-0.134 -0.905,0.048 -1.776,0.215 -2.659,0.508 -0.145,0.351 -0.277,0.71 -0.392,1.071 1.51,-0.491 3.027,-0.661 4.653,-0.523 0.257,0.021 0.516,0.05 0.774,0.086 l 0.007,-1.008 z m 13.478,2.058 c -0.596,0.181 -1.206,0.434 -1.817,0.754 -0.371,0.191 -0.747,0.362 -1.116,0.509 -1.248,0.499 -2.458,0.741 -3.7,0.741 -0.814,0 -1.654,-0.109 -2.496,-0.324 -0.357,-0.092 -0.723,-0.204 -1.088,-0.334 -0.82,-0.293 -1.581,-0.517 -2.318,-0.681 l -0.039,5.629 -0.942,0 7.356,7.356 7.157,-7.324 -0.997,0 0,-6.326 z m -1.817,-4.321 c -0.148,0.077 -0.297,0.149 -0.446,0.22 l 2.251,0 c 0.924,-0.236 1.862,-0.334 2.799,-0.293 0.656,0.029 1.326,0.126 2.008,0.294 -0.27,-0.394 -0.563,-0.775 -0.874,-1.137 l -0.042,-0.05 c -1.94,-0.358 -3.752,-0.05 -5.696,0.966 m -7.89,-0.834 c 2.522,0.901 4.76,0.742 7.193,-0.51 1.577,-0.824 3.112,-1.241 4.686,-1.274 -0.398,-0.322 -0.815,-0.622 -1.246,-0.897 -0.904,0.166 -1.802,0.486 -2.743,0.978 -1.637,0.842 -3.212,1.251 -4.814,1.251 -1.171,0 -2.344,-0.215 -3.586,-0.659 -1.51,-0.539 -2.782,-0.845 -3.996,-0.962 -0.396,0.299 -0.779,0.622 -1.142,0.966 1.701,-0.017 3.503,0.341 5.648,1.107 m 7.214,2.016 -2.993,-0.002 c -0.379,0.047 -0.765,0.071 -1.146,0.071 -0.381,0 -0.77,-0.024 -1.13,-0.069 l -3.582,0 c 0.525,0.145 1.068,0.318 1.637,0.521 2.522,0.901 4.759,0.741 7.193,-0.51 0.007,-0.004 0.014,-0.008 0.021,-0.011 m -4.138,2.606 c -1.171,0 -2.344,-0.216 -3.586,-0.659 -0.821,-0.293 -1.576,-0.517 -2.3,-0.681 l -0.007,0.989 c 0.507,0.105 1.035,0.238 1.574,0.397 0.409,0.122 0.827,0.258 1.243,0.407 2.523,0.901 4.76,0.741 7.193,-0.51 0.647,-0.339 1.306,-0.614 1.957,-0.818 0.186,-0.058 0.371,-0.111 0.557,-0.159 l 0,-0.97 c -0.595,0.18 -1.205,0.433 -1.817,0.753 -1.637,0.842 -3.211,1.251 -4.814,1.251 m -9.637,-8.493 -0.034,-0.783 -0.322,0.267 -0.027,0.399 -0.397,-0.047 -0.322,0.267 0.764,0.178 0.338,-0.281 z m -0.553,4.395 c -0.19,0.251 -0.38,0.52 -0.563,0.802 -0.073,0.113 -0.142,0.222 -0.208,0.329 0.196,-0.039 0.395,-0.074 0.595,-0.104 0.816,-0.121 1.655,-0.153 2.508,-0.095 0.334,0.022 0.676,0.058 1.022,0.108 l 0.003,-0.51 2.117,0 c -1.755,-0.529 -3.252,-0.722 -4.697,-0.617 -0.267,0.02 -0.528,0.049 -0.777,0.087 m -5.647,18.128 1.154,1.702 0.549,-0.372 -0.737,-1.087 0.418,-0.283 0.63,0.928 0.548,-0.372 -0.629,-0.928 0.439,-0.298 0.737,1.086 0.548,-0.372 -1.153,-1.701 -2.504,1.697 z m 2.174,2.897 1.422,-1.329 c 0.204,-0.192 0.427,-0.191 0.595,-0.011 0.168,0.18 0.161,0.409 -0.044,0.6 l -1.421,1.33 0.508,0.543 1.433,-1.341 c 0.484,-0.453 0.438,-1.125 0.008,-1.585 -0.43,-0.459 -1.091,-0.544 -1.575,-0.091 l -1.434,1.341 0.508,0.543 z m 3.355,2.988 c 0.355,0.248 0.682,0.351 1.043,0.287 l -0.117,-0.651 c -0.266,0.048 -0.464,-0.106 -0.572,-0.181 -0.212,-0.148 -0.215,-0.331 -0.14,-0.439 0.022,-0.031 0.064,-0.069 0.129,-0.081 0.054,-0.009 0.128,-0.004 0.222,0.046 l 0.329,0.167 c 0.245,0.124 0.453,0.166 0.631,0.134 0.222,-0.037 0.403,-0.185 0.563,-0.415 0.352,-0.505 0.108,-1.084 -0.414,-1.448 -0.38,-0.265 -0.739,-0.411 -1.169,-0.328 l 0.118,0.662 c 0.219,-0.039 0.477,0.074 0.676,0.212 0.24,0.167 0.299,0.328 0.2,0.47 -0.042,0.06 -0.09,0.099 -0.151,0.113 -0.053,0.009 -0.122,-0.003 -0.21,-0.048 l -0.329,-0.167 c -0.241,-0.122 -0.46,-0.165 -0.651,-0.128 -0.198,0.039 -0.37,0.167 -0.518,0.38 -0.316,0.453 -0.205,1.022 0.36,1.415 m 3.465,1.919 0.293,-0.594 -1.178,-0.58 0.224,-0.454 1.005,0.496 0.294,-0.595 -1.007,-0.495 0.235,-0.476 1.177,0.58 0.293,-0.595 -1.844,-0.908 -1.336,2.713 1.844,0.908 z m 1.12,0.088 c 0.145,0.276 0.354,0.465 0.706,0.574 0.353,0.11 0.632,0.072 0.907,-0.074 0.399,-0.21 0.513,-0.619 0.647,-1.053 0.112,-0.36 0.227,-0.702 0.139,-1.036 l 0.276,-0.146 -0.249,-0.472 -0.291,0.154 c -0.127,-0.138 -0.296,-0.239 -0.518,-0.308 -0.353,-0.109 -0.632,-0.071 -0.908,0.074 -0.398,0.21 -0.512,0.619 -0.646,1.053 -0.135,0.434 -0.273,0.835 -0.063,1.234 m 3.36,1.175 0.269,-1.925 c 0.039,-0.278 0.212,-0.416 0.456,-0.382 0.244,0.034 0.381,0.216 0.343,0.493 l -0.27,1.926 0.736,0.103 0.272,-1.942 c 0.092,-0.656 -0.367,-1.149 -0.989,-1.236 -0.622,-0.087 -1.19,0.262 -1.281,0.918 l -0.272,1.942 0.736,0.103 z m 3.265,0.245 0.573,-0.014 1.029,-3.05 -0.777,0.018 -0.13,0.454 -0.93,0.021 -0.159,-0.446 -0.777,0.018 1.171,2.999 z m 2.359,-0.13 0.639,-0.123 0.662,-1.678 0.289,1.494 0.73,-0.142 -0.574,-2.971 -0.639,0.124 -0.662,1.678 -0.289,-1.494 -0.73,0.141 0.574,2.971 z m 4.567,-1.219 -0.041,-3.218 -0.727,0.275 0.028,0.471 -0.87,0.328 -0.298,-0.368 -0.727,0.275 2.098,2.439 0.537,-0.202 z m 1.193,-3.189 1.564,0.412 c 0.158,0.04 0.235,0.082 0.303,0.189 0.09,0.14 0.073,0.287 -0.078,0.383 -0.107,0.069 -0.268,0.101 -0.394,-0.096 l -0.586,0.376 c 0.32,0.501 0.875,0.534 1.319,0.249 C -4.324,6.091 -4.166,5.582 -4.473,5.102 -4.645,4.834 -4.847,4.761 -5.189,4.677 L -6.209,4.423 -5.286,3.832 -5.625,3.302 -7.264,4.351 -6.925,4.88 z M -2.669,4.813 C -2.288,4.487 -2.136,3.939 -2.542,3.465 L -3.314,2.561 C -3.72,2.086 -4.285,2.15 -4.666,2.476 -5.047,2.801 -5.198,3.35 -4.793,3.824 l 0.773,0.904 c 0.405,0.475 0.97,0.411 1.351,0.085 m 0.947,-1.666 0.848,-0.11 0.463,-0.522 -2.263,-2.009 -0.463,0.522 1.707,1.515 -0.848,0.11 0.556,0.494 z M -15.52,12.32 c -12.308,0 -22.286,-9.978 -22.286,-22.287 0,-12.309 9.978,-22.287 22.286,-22.287 12.309,0 22.287,9.978 22.287,22.287 0,12.309 -9.978,22.287 -22.287,22.287"
           inkscape:connector-curvature="0" />
      </g>
      <g
         transform="matrix(1.25,0,0,-1.25,578.57692,823.2553)"
         id="g1260">
        <path
           id="path1262"
           style="fill:#3a3898;fill-opacity:1;fill-rule:nonzero;stroke:none"
           d="m 0,0 -0.257,0.075 -0.391,-1.339 0.258,-0.075 c 0.147,-0.043 0.243,-0.012 0.32,0.052 0.066,0.053 0.102,0.112 0.22,0.517 0.117,0.402 0.119,0.474 0.092,0.554 C 0.212,-0.12 0.148,-0.043 0,0"
           inkscape:connector-curvature="0" />
      </g>
      <g
         transform="matrix(1.25,0,0,-1.25,591.00455,823.71655)"
         id="g1264">
        <path
           id="path1266"
           style="fill:#3a3898;fill-opacity:1;fill-rule:nonzero;stroke:none"
           d="M 0,0 -0.027,-0.697 0.387,-0.576 0,0 z"
           inkscape:connector-curvature="0" />
      </g>
      <g
         transform="matrix(1.25,0,0,-1.25,588.23854,823.84205)"
         id="g1268">
        <path
           id="path1270"
           style="fill:#3a3898;fill-opacity:1;fill-rule:nonzero;stroke:none"
           d="m 0,0 -0.341,-0.055 0.079,-0.495 0.341,0.055 c 0.165,0.026 0.242,0.162 0.222,0.289 C 0.28,-0.079 0.165,0.027 0,0"
           inkscape:connector-curvature="0" />
      </g>
    </g>
  </g>
</svg>
