<?xml version="1.0" encoding="UTF-8" standalone="no"?>
<!-- Created with Inkscape (http://www.inkscape.org/) -->

<svg
   xmlns:dc="http://purl.org/dc/elements/1.1/"
   xmlns:cc="http://creativecommons.org/ns#"
   xmlns:rdf="http://www.w3.org/1999/02/22-rdf-syntax-ns#"
   xmlns:svg="http://www.w3.org/2000/svg"
   xmlns="http://www.w3.org/2000/svg"
   xmlns:sodipodi="http://sodipodi.sourceforge.net/DTD/sodipodi-0.dtd"
   xmlns:inkscape="http://www.inkscape.org/namespaces/inkscape"
   width="210mm"
   height="297mm"
   id="svg4260"
   version="1.1"
   inkscape:version="0.48.5 r10040"
   sodipodi:docname="Nouveau document 8">
  <defs
     id="defs4262">
    <clipPath
       clipPathUnits="userSpaceOnUse"
       id="clipPath118">
      <path
         inkscape:connector-curvature="0"
         d="m 0,0 510.236,0 0,680.315 L 0,680.315 0,0 z"
         id="path120" />
    </clipPath>
  </defs>
  <sodipodi:namedview
     id="base"
     pagecolor="#725f15"
     bordercolor="#666666"
     borderopacity="1.0"
     inkscape:pageopacity="1"
     inkscape:pageshadow="2"
     inkscape:zoom="3.959798"
     inkscape:cx="375"
     inkscape:cy="520"
     inkscape:document-units="px"
     inkscape:current-layer="g116"
     showgrid="false"
     inkscape:window-width="1871"
     inkscape:window-height="1056"
     inkscape:window-x="49"
     inkscape:window-y="24"
     inkscape:window-maximized="1" />
  <metadata
     id="metadata4265">
    <rdf:RDF>
      <cc:Work
         rdf:about="">
        <dc:format>image/svg+xml</dc:format>
        <dc:type
           rdf:resource="http://purl.org/dc/dcmitype/StillImage" />
        <dc:title></dc:title>
      </cc:Work>
    </rdf:RDF>
  </metadata>
  <g
     inkscape:label="Calque 1"
     inkscape:groupmode="layer"
     id="layer1">
    <g
       clip-path="url(#clipPath118)"
       id="g116"
       transform="matrix(1.25,0,0,-1.25,56.102313,592.30506)">
      <g
         transform="translate(256.5478,60.2855)"
         id="g122">
        <path
           id="path124"
           style="fill:#ffffff;fill-opacity:1;fill-rule:nonzero;stroke:none"
           d="m 0,0 c -0.386,0 -0.664,-0.197 -0.862,-0.449 0.033,0.198 0.057,0.406 0.056,0.615 -0.002,1.259 -0.451,1.747 -0.451,1.747 0,0 -0.451,-0.483 -0.451,-1.747 0,-0.209 0.024,-0.417 0.058,-0.615 C -1.849,-0.197 -2.128,0 -2.514,0 c -0.253,0 -0.47,-0.129 -0.593,-0.353 -0.14,-0.252 -0.133,-0.576 0.014,-0.811 l 0.074,-0.119 0.058,0.129 c 0.002,0.004 0.224,0.433 0.588,0.497 0.448,0.08 1.054,-0.922 1.054,-0.922 l 0.125,0 c 0,0 0.513,0.986 1.053,0.922 C 0.226,-0.7 0.445,-1.15 0.446,-1.154 l 0.059,-0.129 0.074,0.119 C 0.727,-0.93 0.733,-0.605 0.595,-0.353 0.472,-0.13 0.255,0 0,0"
           inkscape:connector-curvature="0" />
      </g>
      <g
         transform="translate(249.4551,70.0428)"
         id="g126">
        <path
           id="path128"
           style="fill:#ffffff;fill-opacity:1;fill-rule:nonzero;stroke:none"
           d="m 0,0 3.575,0 0,1.963 -3.575,0 C -0.582,1.963 -1.055,1.521 -1.055,0.979 -1.055,0.433 -0.582,0 0,0"
           inkscape:connector-curvature="0" />
      </g>
      <g
         transform="translate(250.7922,60.2452)"
         id="g130">
        <path
           id="path132"
           style="fill:#ffffff;fill-opacity:1;fill-rule:nonzero;stroke:none"
           d="m 0,0 c -0.386,0 -0.664,-0.196 -0.862,-0.446 0.034,0.197 0.057,0.406 0.057,0.614 -0.003,1.26 -0.453,1.748 -0.453,1.748 0,0 -0.45,-0.483 -0.45,-1.748 0,-0.208 0.024,-0.417 0.058,-0.614 C -1.849,-0.196 -2.128,0 -2.513,0 -2.767,0 -2.984,-0.127 -3.107,-0.35 -3.247,-0.602 -3.24,-0.928 -3.093,-1.162 l 0.074,-0.118 0.058,0.127 c 0.003,0.006 0.224,0.433 0.589,0.499 0.447,0.08 1.054,-0.922 1.053,-0.922 l 0.125,0 c 0,0 0.512,0.986 1.053,0.922 0.369,-0.044 0.586,-0.493 0.588,-0.499 L 0.505,-1.28 0.58,-1.162 c 0.146,0.234 0.154,0.559 0.015,0.811 C 0.471,-0.127 0.254,0 0,0"
           inkscape:connector-curvature="0" />
      </g>
      <g
         transform="translate(262.3226,60.2653)"
         id="g134">
        <path
           id="path136"
           style="fill:#ffffff;fill-opacity:1;fill-rule:nonzero;stroke:none"
           d="m 0,0 c -0.386,0 -0.663,-0.196 -0.862,-0.448 0.034,0.199 0.058,0.408 0.058,0.614 -0.003,1.26 -0.453,1.748 -0.453,1.748 0,0 -0.451,-0.482 -0.451,-1.748 0,-0.206 0.024,-0.415 0.059,-0.614 C -1.85,-0.196 -2.127,0 -2.514,0 c -0.253,0 -0.47,-0.129 -0.592,-0.352 -0.141,-0.251 -0.134,-0.575 0.014,-0.81 l 0.073,-0.119 0.058,0.127 c 0.002,0.005 0.224,0.433 0.59,0.498 0.448,0.081 1.052,-0.922 1.052,-0.922 l 0.126,0 c 0,0 0.511,0.987 1.052,0.922 0.368,-0.042 0.586,-0.493 0.589,-0.498 l 0.057,-0.127 0.075,0.119 c 0.147,0.233 0.153,0.559 0.015,0.81 C 0.472,-0.13 0.255,0 0,0"
           inkscape:connector-curvature="0" />
      </g>
      <g
         transform="translate(255.2341,79.3701)"
         id="g138">
        <path
           id="path140"
           style="fill:#ffffff;fill-opacity:1;fill-rule:nonzero;stroke:none"
           d="m 0,0 c -11.647,0 -21.122,-9.476 -21.122,-21.124 0,-11.647 9.475,-21.122 21.122,-21.122 11.648,0 21.124,9.475 21.124,21.122 C 21.124,-9.476 11.648,0 0,0 m 5.882,-5.694 c 1.571,0 2.843,-1.19 2.843,-2.655 0,-1.466 -1.272,-2.655 -2.843,-2.655 l -3.736,-0.001 0.008,-1.876 c 0,-0.273 0.196,-0.364 0.196,-0.364 l -2.039,0 c 0,0 0.166,0.076 0.166,0.366 l 0,6.831 c 0,0.242 -0.236,0.354 -0.236,0.354 l 5.641,0 z m -1.721,-9.417 -8.321,0 0,1.08 8.321,0 0,-1.08 z m -9.94,9.417 5.642,0 c 0,0 -0.237,-0.112 -0.237,-0.354 l 0,-6.831 c 0,-0.29 0.166,-0.365 0.166,-0.365 l -2.002,0 c 0,0 0.16,0.09 0.16,0.363 l 0.009,1.876 -3.738,0.001 c -1.572,0 -2.844,1.189 -2.844,2.655 0,1.465 1.272,2.655 2.844,2.655 m -9.888,-8.337 11.199,0 0,-1.08 -11.199,0 0,1.08 z m 15.718,-22.52 c -1.583,0.883 -2.861,2.012 -3.894,3.281 l 0.037,-0.004 c 1.102,-0.344 2.297,-1.52 3.82,-1.52 1.565,0 2.77,1.205 3.924,1.527 l 0.011,0.001 c -1.034,-1.269 -2.312,-2.399 -3.898,-3.285 m 4.338,3.852 -0.177,-0.227 c -0.414,0.002 -0.727,-0.082 -1.25,-0.321 -0.707,-0.319 -2.138,-0.783 -2.911,-0.783 -0.773,0 -2.072,0.441 -2.924,0.783 -0.545,0.221 -0.846,0.315 -1.236,0.326 l -0.179,0.228 c -0.398,0.541 -0.754,1.104 -1.074,1.681 l 0.029,0.01 c 2.187,0.379 2.604,-1.564 5.356,-1.564 2.819,0 2.99,2.076 5.427,1.558 l 0.017,-0.006 c -0.321,-0.579 -0.68,-1.142 -1.078,-1.685 m 1.231,1.968 -0.029,0.018 c -0.507,0.285 -1.146,0.493 -1.953,0.261 0.067,0.151 0.091,0.249 0.091,0.249 l 0.327,0 0,0.368 0.28,0 0,1.008 -0.577,0 0,-0.279 -0.333,0 0,0.279 -0.679,0 0,-0.279 -0.322,0 0,0.279 -0.559,0 0,-1.008 0.256,0 c 0,0 0.016,-0.392 -0.373,-0.392 -0.358,0 -0.663,0.441 -0.693,0.863 -0.04,0.584 0.007,1.829 0.492,3.108 0.697,1.938 2.066,3.71 2.066,3.71 0,0 -1.092,0.333 -3.203,-0.423 l 0,0.655 c 0,0 -1.184,0.571 -1.506,-0.116 -0.178,-0.38 -0.63,0.247 -1.116,-0.502 -0.487,-0.753 -0.707,-0.503 -0.879,-0.496 0,0 0.425,-0.345 1.008,0.204 0.583,0.548 0.669,-0.153 1.228,0.406 0.522,0.521 1.088,0.032 1.088,0.032 l 0,-0.249 c -0.971,-0.366 -1.921,-0.819 -3.293,-1.771 0,0 -0.681,-3.017 1.394,-4.021 l -1.023,0 0,-0.279 -0.293,0 0,0.279 -0.655,0 0,-1.008 0.279,0 0,-0.368 0.327,0 c 0,0 0.093,-0.289 0.362,-0.651 -0.08,0.033 -0.158,0.068 -0.231,0.106 -1.037,0.515 -1.733,0.478 -2.293,0.228 -0.035,-0.016 -0.071,-0.033 -0.108,-0.051 -0.002,-0.002 -0.008,-0.004 -0.012,-0.007 -0.039,-0.019 -0.076,-0.039 -0.115,-0.06 -0.003,-0.003 -0.074,-0.055 -0.076,-0.057 l -0.023,-0.016 c -1.552,2.937 -2.184,6.575 -2.42,9.19 l 15.997,0 c -0.237,-2.623 -0.87,-6.267 -2.431,-9.21 m 2.44,9.662 -16.021,0 c -0.176,2.565 -0.02,4.191 -0.02,4.191 l 7.987,0 0.09,0 7.987,0 c 0,0 0.158,-1.607 -0.023,-4.191 m 7.608,4.856 -31.335,0 0,0.164 31.335,0 0,-0.164 z m 0,0.335 -31.335,0 0,0.162 31.335,0 0,-0.162 z m 0,0.335 -31.335,0 0,0.162 31.335,0 0,-0.162 z m -11.2,1.512 11.2,0 0,-1.08 -11.2,0 0,1.08 z"
           inkscape:connector-curvature="0" />
      </g>
      <g
         transform="translate(262.1726,71.0214)"
         id="g142">
        <path
           id="path144"
           style="fill:#ffffff;fill-opacity:1;fill-rule:nonzero;stroke:none"
           d="m 0,0 c 0,0.543 -0.473,0.984 -1.056,0.984 l -3.574,0 0,-1.961 3.574,0 C -0.473,-0.977 0,-0.544 0,0"
           inkscape:connector-curvature="0" />
      </g>
    </g>
  </g>
</svg>
