<?xml version="1.0" standalone="no"?>
<!DOCTYPE svg PUBLIC "-//W3C//DTD SVG 1.1//EN" "http://www.w3.org/Graphics/SVG/1.1/DTD/svg11.dtd" >
<svg xmlns="http://www.w3.org/2000/svg">
<metadata></metadata>
<defs>
<font id="URWGothicLRegular" horiz-adv-x="1135" vert-adv-y="2048" >
<font-face units-per-em="2048" ascent="1595" descent="-453" />
<missing-glyph horiz-adv-x="567" />
<glyph horiz-adv-x="0" vert-adv-y="0" />
<glyph horiz-adv-x="2048" vert-adv-y="2458" />
<glyph unicode=" " horiz-adv-x="567" vert-adv-y="2458" />
<glyph unicode="!" horiz-adv-x="604" vert-adv-y="2458" d="M227 0v258h152v-258h-152zM227 403v1110h152v-1110h-152z" />
<glyph unicode="&#x22;" horiz-adv-x="633" vert-adv-y="2458" d="M152 1050v463h102v-463h-102zM384 1050v463h102v-463h-102z" />
<glyph unicode="#" vert-adv-y="2458" d="M10 485v125h227l61 318h-255v125h277l86 460h131l-84 -460h333l82 460h136l-83 -460h203v-125h-226l-57 -318h252v-125h-276l-87 -485h-136l87 485h-334l-92 -485h-135l93 485h-203zM371 610h333l60 318h-335z" />
<glyph unicode="$" vert-adv-y="2458" d="M158 459v8h141q6 -104 48 -169q75 -114 224 -114q117 0 191 80q71 78 71 196q0 126 -86 197q-54 44 -191 86q-142 44 -199 85q-84 59 -122 159q-26 68 -26 143q0 189 138 291q70 52 159 70v168h135v-168q138 -22 223 -104q105 -104 108 -267h-142q-6 103 -55 161 q-68 81 -182 81q-97 0 -161 -58q-71 -64 -71 -186q0 -97 57 -149q53 -48 193 -93q138 -44 195 -79q94 -59 140 -157q39 -81 39 -176q0 -127 -64 -231q-95 -154 -280 -173v-175h-135v175q-156 26 -249 120q-103 107 -99 279z" />
<glyph unicode="%" horiz-adv-x="1587" vert-adv-y="2458" d="M27 1172q0 153 106 257q107 105 257 105q144 0 250 -105q106 -106 106 -255q0 -150 -106 -256t-254 -106q-149 0 -254 107q-105 106 -105 253zM162 1173q0 -93 66 -160q65 -66 157 -66t157 67q65 66 65 158q0 97 -66 162t-154 65q-94 0 -159 -65q-66 -67 -66 -161zM373 0 l680 1513h152l-684 -1513h-148zM821 332q0 152 106 255q107 105 258 105q143 0 250 -105q106 -105 106 -254t-106 -254q-106 -106 -255 -106t-254 106t-105 253zM958 332q0 -92 66 -159q65 -65 156 -65q92 0 157 66t65 158q0 96 -66 160q-66 65 -153 65q-94 0 -159 -65 q-66 -66 -66 -160z" />
<glyph unicode="&#x26;" horiz-adv-x="1550" vert-adv-y="2458" d="M117 436q0 206 166 338q61 49 182 113q-54 57 -87 101q-81 107 -81 217q0 138 102 235q105 100 257 100q146 0 249 -89q115 -99 115 -258q0 -160 -137 -262q-42 -31 -157 -90l287 -282l219 426h168l-277 -534l383 -374l-106 -104l-349 339q-63 -126 -142 -209 q-124 -130 -314 -130q-211 0 -342 133q-62 62 -98 148q-38 90 -38 182zM267 420q0 -123 83 -210q95 -100 235 -100q105 0 184 68q84 72 169 243l-364 357q-94 -46 -162 -94q-145 -104 -145 -264zM449 1208q0 -73 66 -155q27 -33 64 -69q35 -34 36 -33q14 5 22 8 q70 29 135 71q105 70 105 176q0 91 -71 148q-61 49 -146 49q-78 0 -136 -44q-75 -59 -75 -151z" />
<glyph unicode="'" horiz-adv-x="406" vert-adv-y="2458" d="M152 1050v463h102v-463h-102z" />
<glyph unicode="(" horiz-adv-x="756" vert-adv-y="2458" d="M117 633q0 258 134 495q108 188 252 293q74 55 183 92v-130q-165 -98 -265 -255q-152 -241 -152 -497q0 -187 82 -368q87 -194 221 -305q46 -39 114 -81v-133q-115 41 -197 106q-176 140 -283 372q-89 195 -89 411z" />
<glyph unicode=")" horiz-adv-x="756" vert-adv-y="2458" d="M70 -126q164 98 265 255q152 241 152 497q0 188 -82 369q-88 193 -221 305q-46 38 -114 80v133q115 -41 197 -106q176 -139 283 -372q89 -194 89 -410q0 -259 -135 -495q-107 -189 -250 -294q-75 -54 -184 -92v130z" />
<glyph unicode="*" horiz-adv-x="870" vert-adv-y="2458" d="M131 1193v107l216 -5l-116 188l101 56l107 -185l109 186l95 -58l-116 -189l210 7v-107l-209 5l112 -184l-96 -57l-107 186l-109 -185l-100 57l118 183z" />
<glyph unicode="+" horiz-adv-x="1241" vert-adv-y="2458" d="M104 546v152h438v443h158v-443h436v-152h-436v-446h-158v446h-438z" />
<glyph unicode="," horiz-adv-x="567" vert-adv-y="2458" d="M186 -137l180 395h152l-180 -395h-152z" />
<glyph unicode="-" horiz-adv-x="680" vert-adv-y="2458" d="M63 477v129h555v-129h-555z" />
<glyph unicode="." horiz-adv-x="567" vert-adv-y="2458" d="M207 0v258h152v-258h-152z" />
<glyph unicode="/" horiz-adv-x="895" vert-adv-y="2458" d="M82 -262l588 1775h143l-593 -1775h-138z" />
<glyph unicode="0" vert-adv-y="2458" d="M61 551v429q0 144 28 236q52 168 195 253q119 71 283 71q278 0 420 -203q57 -80 76 -179q12 -66 12 -178v-429q0 -258 -90 -389q-130 -189 -406 -189q-309 0 -443 226q-75 127 -75 352zM211 575q0 -225 67 -322q98 -143 295 -143q219 0 303 165q49 95 49 300v371 q0 128 -16 198q-30 133 -136 202q-89 57 -205 57t-205 -57q-107 -69 -135 -202q-17 -77 -17 -198v-371z" />
<glyph unicode="1" vert-adv-y="2458" d="M317 1376v137h408v-1513h-150v1376h-258z" />
<glyph unicode="2" vert-adv-y="2458" d="M68 0v137l531 512q131 126 180 184q106 125 106 255q0 141 -96 230q-91 85 -233 85q-116 0 -202 -66q-122 -94 -125 -313h-149q0 132 33 220q57 154 193 232q112 64 253 64q208 0 343 -130t135 -331q0 -145 -80 -257q-69 -98 -197 -220l-488 -465h757v-137h-961z" />
<glyph unicode="3" vert-adv-y="2458" d="M68 473h150q11 -142 60 -216q97 -147 275 -147q137 0 230 94q98 99 98 246q0 166 -123 266q-82 67 -199 75q-39 3 -110 4v134q63 -3 74 -3q95 0 161 44q96 64 96 195q0 103 -63 170q-65 68 -166 68q-138 0 -199 -110q-33 -60 -34 -156h-149q4 144 66 240q52 80 139 123 q80 40 178 40q168 0 274 -108q106 -107 106 -275q0 -182 -154 -290q107 -55 164 -131q91 -121 91 -278q0 -210 -150 -356q-134 -129 -324 -129q-169 0 -299 95q-182 133 -192 405z" />
<glyph unicode="4" vert-adv-y="2458" d="M25 276v137l736 1100h179v-1100h140v-137h-140v-276h-150v276h-765zM199 413h591v891z" />
<glyph unicode="5" vert-adv-y="2458" d="M53 475h147q15 -124 80 -214q108 -151 287 -151q161 0 268 126q94 112 94 268q0 167 -105 278q-104 111 -258 111q-175 0 -312 -170l-117 44l136 746h681v-137h-560l-76 -417q133 71 261 71q209 0 353 -147q71 -72 110 -174q39 -99 39 -206q0 -198 -123 -348 q-148 -182 -386 -182q-206 0 -353 141q-103 99 -143 236q-12 44 -23 125z" />
<glyph unicode="6" vert-adv-y="2458" d="M51 499q0 134 61 261q29 61 120 197l375 556h173l-357 -527q93 44 179 44q153 0 282 -98q114 -87 165 -226q34 -93 34 -196q0 -221 -133 -372q-144 -165 -377 -165q-244 0 -396 175q-126 146 -126 351zM203 507q0 -158 90 -268q106 -129 280 -129q162 0 264 118 q94 109 94 275q0 172 -106 285q-100 105 -255 105t-257 -106q-55 -57 -84 -138q-26 -72 -26 -142z" />
<glyph unicode="7" vert-adv-y="2458" d="M131 1376v137h872v-137l-617 -1376h-160l621 1376h-716z" />
<glyph unicode="8" vert-adv-y="2458" d="M86 440q0 162 95 280q62 77 162 125q-67 40 -100 78q-77 91 -77 226q0 161 110 273q115 118 293 118q160 0 271 -95q129 -111 129 -296q0 -132 -67 -219q-37 -49 -114 -85q105 -45 168 -122q93 -115 93 -276q0 -211 -140 -346q-131 -128 -336 -128q-217 0 -355 142 q-132 136 -132 325zM237 442q0 -133 78 -221q98 -111 257 -111q148 0 239 99q86 92 86 233q0 149 -97 238q-94 87 -232 87q-140 0 -233 -87q-98 -92 -98 -238zM318 1161q0 -102 64 -171q75 -82 194 -82q108 0 176 74q66 72 66 176q0 107 -71 178q-68 67 -179 67 q-120 0 -190 -79q-60 -67 -60 -163z" />
<glyph unicode="9" vert-adv-y="2458" d="M51 1003q0 221 133 372q144 165 377 165q244 0 396 -175q126 -146 126 -351q0 -134 -61 -261q-29 -61 -120 -196l-374 -557h-174l357 527q-92 -44 -178 -44q-154 0 -283 98q-114 87 -165 225q-34 94 -34 197zM203 1010q0 -172 106 -285q100 -105 255 -105q156 0 257 106 q55 57 84 139q26 71 26 140q0 158 -90 269q-105 129 -280 129q-162 0 -264 -118q-94 -109 -94 -275z" />
<glyph unicode=":" horiz-adv-x="567" vert-adv-y="2458" d="M207 0v258h152v-258h-152zM207 780v258h152v-258h-152z" />
<glyph unicode=";" horiz-adv-x="567" vert-adv-y="2458" d="M84 -137l180 395h152l-180 -395h-152zM256 780v258h152v-258h-152z" />
<glyph unicode="&#x3c;" horiz-adv-x="1241" vert-adv-y="2458" d="M100 548v134l1042 475v-160l-820 -382l820 -380v-159z" />
<glyph unicode="=" horiz-adv-x="1241" vert-adv-y="2458" d="M104 336v152h1032v-152h-1032zM104 741v152h1032v-152h-1032z" />
<glyph unicode="&#x3e;" horiz-adv-x="1241" vert-adv-y="2458" d="M98 76v159l822 382l-822 380v160l1042 -473v-133z" />
<glyph unicode="?" horiz-adv-x="1210" vert-adv-y="2458" d="M133 1040q5 180 74 289q62 98 164 153q106 58 240 58q205 0 336 -129q128 -125 128 -315q0 -118 -63 -214q-40 -62 -122 -136q-80 -72 -110 -108q-70 -85 -87 -157q-9 -38 -12 -86h-143q3 123 44 208q30 62 76 115q22 27 94 95q80 75 117 126q54 70 54 160q0 129 -84 214 q-89 90 -228 90q-108 0 -193 -57q-97 -66 -126 -194q-10 -41 -15 -112h-144zM534 0v258h152v-258h-152z" />
<glyph unicode="@" horiz-adv-x="1776" vert-adv-y="2458" d="M145 752q0 340 241 570q109 104 249 161q141 57 291 57q195 0 366 -93q164 -88 253 -236q87 -143 87 -324q0 -288 -209 -482q-129 -121 -269 -121q-86 0 -135 44q-24 22 -45 73q-107 -106 -243 -106q-121 0 -198 77q-85 86 -85 226q0 167 92 330q88 157 219 234 q91 53 189 53q96 0 164 -46q41 -27 72 -97l35 104h124l-189 -569q-42 -128 -42 -160q0 -20 12 -35q19 -22 57 -22q85 0 184 99q165 167 165 399q0 238 -179 396q-173 152 -424 152q-276 0 -472 -196q-81 -82 -131 -184q-72 -144 -72 -303q0 -183 93 -345q95 -168 271 -258 q147 -75 311 -75q283 0 479 208l82 -69q-60 -70 -142 -121q-192 -120 -423 -120q-227 0 -415 118q-190 119 -286 319q-77 159 -77 342zM596 603q0 -86 46 -139q44 -50 119 -50q132 0 234 183q55 98 89 218q22 79 22 126q0 64 -27 102q-44 61 -125 61q-82 0 -162 -64 q-88 -70 -145 -205q-51 -119 -51 -232z" />
<glyph unicode="A" horiz-adv-x="1516" vert-adv-y="2458" d="M23 0l648 1513h172l650 -1513h-166l-219 510h-705l-221 -510h-159zM461 647h588l-291 694z" />
<glyph unicode="B" horiz-adv-x="1176" vert-adv-y="2458" d="M156 0v1513h355q180 0 279 -35q133 -46 192 -157q47 -87 47 -201q0 -127 -55 -212q-37 -58 -113 -101q114 -47 172 -117q82 -100 82 -256q0 -163 -83 -273q-82 -110 -254 -143q-92 -18 -246 -18h-376zM308 137h206q224 0 328 55q52 27 84 87q35 66 35 146q0 188 -142 258 q-85 42 -331 42h-180v-588zM308 862h184q183 0 266 39q117 55 117 216q0 95 -45 161q-44 66 -151 86q-67 12 -188 12h-183v-514z" />
<glyph unicode="C" horiz-adv-x="1665" vert-adv-y="2458" d="M90 752q0 349 237 576q221 212 546 212q294 0 503 -169q129 -105 194 -251h-169q-77 120 -165 178q-155 103 -355 103q-276 0 -456 -187q-87 -91 -135 -213q-46 -118 -46 -244q0 -275 196 -464q92 -88 210 -135q114 -46 233 -46q216 0 375 125q68 53 150 160h169 q-230 -424 -693 -424q-320 0 -547 207q-247 227 -247 572z" />
<glyph unicode="D" horiz-adv-x="1524" vert-adv-y="2458" d="M156 0v1513h358q214 0 345 -29q257 -56 414 -246q162 -194 162 -487q0 -270 -143 -456q-146 -190 -381 -255q-141 -40 -347 -40h-408zM308 137h211q210 0 335 34q221 59 333 241q94 152 94 346q0 206 -106 361q-115 170 -330 225q-123 32 -326 32h-211v-1239z" />
<glyph unicode="E" horiz-adv-x="1098" vert-adv-y="2458" d="M156 0v1513h827v-137h-675v-542h653v-137h-653v-560h675v-137h-827z" />
<glyph unicode="F" horiz-adv-x="993" vert-adv-y="2458" d="M156 0v1513h768v-137h-616v-547h593v-137h-593v-692h-152z" />
<glyph unicode="G" horiz-adv-x="1786" vert-adv-y="2458" d="M90 759q0 241 133 436q118 173 307 264q168 81 364 81q290 0 508 -161q145 -108 209 -269h-172q-71 125 -189 197q-154 94 -345 94q-188 0 -349 -93q-158 -91 -242 -255q-71 -140 -71 -297q0 -195 107 -355q98 -147 264 -224q141 -65 294 -65q270 0 451 180 q127 126 161 269h-846v137h1028q-15 -256 -199 -468q-223 -257 -590 -257q-322 0 -551 197q-135 116 -206 274q-66 149 -66 315z" />
<glyph unicode="H" horiz-adv-x="1399" vert-adv-y="2458" d="M156 0v1513h152v-665h783v665h152v-1513h-152v711h-783v-711h-152z" />
<glyph unicode="I" horiz-adv-x="463" vert-adv-y="2458" d="M156 0v1513h152v-1513h-152z" />
<glyph unicode="J" horiz-adv-x="987" vert-adv-y="2458" d="M23 358h149q5 -84 46 -144q71 -103 211 -103q251 0 251 362v1040h152v-1040q0 -69 -14 -157q-28 -176 -135 -263q-100 -81 -254 -81q-181 0 -293 107q-106 103 -113 279z" />
<glyph unicode="K" horiz-adv-x="1210" vert-adv-y="2458" d="M156 0v1513h152v-870l700 870h191l-598 -737l598 -776h-191l-503 655l-197 -240v-415h-152z" />
<glyph unicode="L" horiz-adv-x="946" vert-adv-y="2458" d="M156 0v1513h152v-1376h626v-137h-778z" />
<glyph unicode="M" horiz-adv-x="1882" vert-adv-y="2458" d="M156 0v1513h236l550 -1287l548 1287h237v-1513h-152v1347l-569 -1347h-132l-566 1347v-1347h-152z" />
<glyph unicode="N" horiz-adv-x="1516" vert-adv-y="2458" d="M156 0v1513h206l846 -1255v1255h152v-1513h-152l-900 1332v-1332h-152z" />
<glyph unicode="O" horiz-adv-x="1780" vert-adv-y="2458" d="M90 765q0 195 102 374q107 187 304 297q185 104 394 104q241 0 448 -137q185 -122 277 -316q75 -157 75 -331q0 -301 -208 -524q-108 -117 -254 -184q-163 -75 -336 -75q-244 0 -450 136q-183 122 -277 317q-75 157 -75 339zM244 762q0 -245 159 -427q91 -103 217 -162 q130 -61 272 -61q196 0 363 115q149 102 224 264q57 126 57 263q0 177 -92 331q-92 155 -257 242q-138 74 -296 74q-184 0 -342 -99q-154 -97 -236 -262q-69 -138 -69 -278z" />
<glyph unicode="P" horiz-adv-x="1212" vert-adv-y="2458" d="M156 0v1513h419q183 0 285 -29q298 -84 298 -429q0 -237 -151 -348q-89 -65 -208 -82q-91 -12 -200 -12h-291v-613h-152zM308 750h280q200 0 292 51q64 35 95 109q29 68 29 145q0 206 -138 276q-90 45 -342 45h-216v-626z" />
<glyph unicode="Q" horiz-adv-x="1784" vert-adv-y="2458" d="M90 756q0 239 128 432q119 178 315 271q169 81 376 81q311 0 534 -183q276 -228 276 -597q0 -356 -253 -570q108 -77 198 -77q11 0 30 1v-140h-6q-92 0 -170 28q-71 27 -155 101q-197 -130 -456 -130q-247 0 -450 128q-201 128 -298 336q-69 148 -69 319zM244 744 q0 -74 23 -173q160 54 323 54q322 0 575 -181q89 -63 194 -154q206 202 206 470q0 198 -114 367q-97 144 -263 216q-136 58 -282 58q-261 0 -448 -166q-100 -89 -155 -213q-59 -130 -59 -278zM329 442q58 -106 177 -198q173 -132 402 -132q184 0 331 93q-102 94 -219 165 q-190 116 -451 116q-128 0 -240 -44z" />
<glyph unicode="R" horiz-adv-x="1243" vert-adv-y="2458" d="M156 0v1513h374q290 0 426 -73q227 -123 227 -413q0 -265 -198 -387q-96 -59 -250 -75l426 -565h-190l-509 686q35 -1 42 -1q245 0 361 49q80 35 122 113q42 81 42 184q0 214 -161 290q-117 55 -347 55h-213v-1376h-152z" />
<glyph unicode="S" horiz-adv-x="1020" vert-adv-y="2458" d="M45 424h162q14 -127 71 -200q42 -53 108 -83q66 -29 137 -29q135 0 221 93q77 83 77 209q0 144 -103 216q-71 49 -234 100q-158 49 -208 77q-97 55 -144 154q-38 79 -38 171q0 172 113 287q118 121 308 121q137 0 242 -67q175 -111 182 -343h-158q-8 113 -68 181 q-80 90 -204 90q-109 0 -181 -68q-80 -76 -80 -197q0 -113 72 -175q38 -33 98 -55q54 -19 126 -41q137 -41 197 -70q234 -114 234 -373q0 -185 -122 -312q-130 -137 -334 -137q-150 0 -269 74q-192 122 -205 377z" />
<glyph unicode="T" horiz-adv-x="872" vert-adv-y="2458" d="M14 1376v137h844v-137h-346v-1376h-152v1376h-346z" />
<glyph unicode="U" horiz-adv-x="1341" vert-adv-y="2458" d="M156 570v943h152v-943q0 -206 70 -315q43 -67 122 -105q80 -38 171 -38q131 0 227 72q136 103 136 386v943h152v-943q0 -184 -39 -288q-58 -157 -201 -239q-123 -70 -275 -70q-179 0 -313 94q-134 96 -177 259q-25 93 -25 244z" />
<glyph unicode="V" horiz-adv-x="1438" vert-adv-y="2458" d="M20 1513h166l532 -1324l534 1324h165l-626 -1513h-149z" />
<glyph unicode="W" horiz-adv-x="1966" vert-adv-y="2458" d="M20 1513h156l373 -1317l362 1317h143l362 -1317l374 1317h155l-435 -1513h-193l-336 1241l-332 -1241h-197z" />
<glyph unicode="X" horiz-adv-x="1247" vert-adv-y="2458" d="M16 0l514 773l-485 740h178l402 -605l399 605h176l-485 -740l515 -773h-179l-426 647l-430 -647h-179z" />
<glyph unicode="Y" horiz-adv-x="1212" vert-adv-y="2458" d="M4 1513h168l431 -848l439 848h167l-529 -1008v-505h-152v505z" />
<glyph unicode="Z" horiz-adv-x="983" vert-adv-y="2458" d="M35 0v138l743 1238h-720v137h890v-137l-741 -1239h764v-137h-936z" />
<glyph unicode="[" horiz-adv-x="719" vert-adv-y="2458" d="M229 336v609q1 260 150 415q118 118 262 153v-153q-96 -42 -151 -93q-71 -69 -98 -166q-20 -73 -20 -183v-557q1 -166 34 -241q47 -115 144 -176q38 -23 91 -47v-153q-156 41 -276 168q-80 87 -110 194q-26 91 -26 230z" />
<glyph unicode="\" horiz-adv-x="1239" vert-adv-y="2458" d="M172 1513h143l635 -1513h-142z" />
<glyph unicode="]" horiz-adv-x="719" vert-adv-y="2458" d="M78 -103q97 42 151 94q71 68 98 165q20 72 20 184v556q-1 167 -34 242q-47 115 -144 176q-38 22 -91 46v153q156 -41 276 -168q80 -86 110 -194q26 -90 26 -230v-608q-1 -159 -47 -263q-65 -150 -220 -246q-65 -39 -145 -60v153z" />
<glyph unicode="^" horiz-adv-x="1241" vert-adv-y="2458" d="M37 369l498 1144h173l496 -1144h-165l-417 982l-420 -982h-165z" />
<glyph unicode="_" horiz-adv-x="1024" vert-adv-y="2458" d="M0 -137h1024v-119h-1024v119z" />
<glyph unicode="`" horiz-adv-x="774" vert-adv-y="2458" d="M152 1470l65 119l406 -226l-67 -114z" />
<glyph unicode="a" horiz-adv-x="1399" vert-adv-y="2458" d="M86 557q0 239 156 407q170 183 433 183q167 0 290 -75q81 -49 153 -150v198h152v-1120h-152v197q-76 -103 -156 -153q-112 -71 -275 -71q-258 0 -428 165q-173 168 -173 419zM240 568q0 -188 124 -319q130 -137 324 -137q182 0 305 131q125 131 125 322q0 190 -123 312 q-132 131 -316 131t-312 -129q-58 -60 -92 -140q-35 -86 -35 -171z" />
<glyph unicode="b" horiz-adv-x="1397" vert-adv-y="2458" d="M129 0v1513h152v-586q60 89 151 143q126 77 289 77q235 0 404 -156q186 -171 186 -431q0 -257 -177 -427q-168 -160 -414 -160q-165 0 -305 88q-78 48 -134 132v-193h-152zM271 566q0 -188 130 -321t314 -133q177 0 300 114q142 132 142 339q0 201 -135 325 q-129 118 -305 118q-181 0 -307 -119q-139 -130 -139 -323z" />
<glyph unicode="c" horiz-adv-x="1325" vert-adv-y="2458" d="M86 563q0 239 169 409q175 175 431 175q238 0 408 -152q98 -88 149 -215h-169q-55 93 -131 147q-115 81 -260 81q-180 0 -304 -118q-67 -63 -105 -156q-35 -87 -35 -175q0 -134 75 -248q71 -107 187 -159q87 -40 188 -40q152 0 264 87q56 43 121 131h171 q-81 -154 -176 -230q-160 -127 -373 -127q-163 0 -305 76q-149 79 -230 226q-75 135 -75 288z" />
<glyph unicode="d" horiz-adv-x="1403" vert-adv-y="2458" d="M85 558q0 254 175 423q172 166 422 166q154 0 288 -76q85 -48 152 -129v571h152v-1513h-152v202q-78 -110 -161 -160q-115 -69 -265 -69q-272 0 -450 184q-161 166 -161 401zM239 566q0 -191 125 -319q132 -135 328 -135q189 0 317 143q119 134 119 308q0 131 -73 242 q-63 97 -170 153q-97 50 -208 50q-187 0 -314 -132q-58 -61 -91 -143q-33 -84 -33 -167z" />
<glyph unicode="e" horiz-adv-x="1331" vert-adv-y="2458" d="M86 565q0 246 171 414q169 168 410 168q202 0 359 -120q168 -127 210 -337q15 -72 15 -180h-1013q7 -124 91 -232q57 -74 143 -117q96 -48 202 -48q163 0 284 109q73 65 107 147h158q-47 -136 -165 -247q-158 -149 -381 -149q-254 0 -427 180q-164 171 -164 412zM241 647 h859q-33 143 -121 232q-60 61 -144 95q-83 34 -170 34q-124 0 -228 -66q-159 -100 -196 -295z" />
<glyph unicode="f" horiz-adv-x="643" vert-adv-y="2458" d="M33 983v137h174q4 89 14 136q22 102 112 173q105 84 291 84h13v-137q-167 0 -232 -75q-43 -51 -46 -181h278v-137h-278v-983h-152v983h-174z" />
<glyph unicode="g" horiz-adv-x="1378" vert-adv-y="2458" d="M85 555q0 247 161 419q161 173 412 173q169 0 296 -83q75 -48 143 -143v199h152v-918q0 -199 -35 -309q-44 -135 -159 -222q-148 -112 -366 -112q-281 0 -446 186q-75 85 -117 220h148q61 -109 110 -155q118 -112 301 -112q207 0 317 126q95 108 95 327v76 q-130 -254 -428 -254q-244 0 -413 168q-171 170 -171 414zM239 566q0 -190 121 -322t309 -132q198 0 319 148q109 133 109 312q0 192 -130 314q-128 121 -301 121q-182 0 -301 -121q-126 -128 -126 -320z" />
<glyph unicode="h" horiz-adv-x="1249" vert-adv-y="2458" d="M129 0v1513h152v-538q47 68 126 115q96 57 229 57q155 0 273 -71q133 -81 181 -236q30 -96 30 -239v-601h-152v601q0 189 -75 285q-49 61 -126 93q-70 29 -145 29q-102 0 -186 -52q-100 -61 -135 -171q-20 -62 -20 -170v-615h-152z" />
<glyph unicode="i" horiz-adv-x="410" vert-adv-y="2458" d="M129 0v1120h152v-1120h-152zM129 1255v258h152v-258h-152z" />
<glyph unicode="j" horiz-adv-x="416" vert-adv-y="2458" d="M-92 -247q113 4 171 71q55 67 56 254v1042h152v-1042q-1 -182 -35 -257q-63 -145 -226 -196q-54 -16 -118 -18v146zM135 1255v258h152v-258h-152z" />
<glyph unicode="k" horiz-adv-x="1028" vert-adv-y="2458" d="M129 0v1513h152v-1073l522 680h187l-436 -564l464 -556h-188l-374 448l-175 -217v-231h-152z" />
<glyph unicode="l" horiz-adv-x="410" vert-adv-y="2458" d="M129 0v1513h152v-1513h-152z" />
<glyph unicode="m" horiz-adv-x="1921" vert-adv-y="2458" d="M129 0v1120h152v-130q55 72 103 102q88 55 212 55q151 0 254 -78q59 -45 113 -137q136 216 388 216q227 0 351 -159q90 -114 90 -324v-665h-152v650q0 168 -62 252q-80 107 -234 107q-92 0 -167 -45q-96 -57 -125 -166q-15 -58 -15 -148v-650h-152v652q0 170 -70 253 q-87 103 -232 103q-98 0 -173 -51q-129 -87 -129 -305v-652h-152z" />
<glyph unicode="n" horiz-adv-x="1249" vert-adv-y="2458" d="M129 0v1120h152v-145q142 172 359 172q245 0 381 -175q65 -85 85 -193q14 -74 14 -191v-588h-152v588q0 118 -19 186q-34 121 -134 182q-85 52 -193 52q-106 0 -190 -51q-99 -60 -133 -171q-18 -60 -18 -171v-615h-152z" />
<glyph unicode="o" horiz-adv-x="1341" vert-adv-y="2458" d="M86 567q0 167 89 312q81 133 224 206q122 62 274 62q271 0 438 -188q145 -164 145 -402q0 -260 -176 -430q-159 -154 -394 -154q-256 0 -425 163q-175 170 -175 431zM240 563q0 -199 124 -324q125 -127 318 -127q184 0 304 128q116 124 116 316q0 193 -114 316 q-127 136 -313 136q-127 0 -236 -66q-101 -61 -153 -175q-46 -101 -46 -204z" />
<glyph unicode="p" horiz-adv-x="1397" vert-adv-y="2458" d="M129 -393v1513h152v-192q61 92 151 145q128 74 289 74q244 0 412 -161q82 -78 128 -185q50 -115 50 -243q0 -255 -186 -428q-168 -157 -407 -157q-286 0 -437 220v-586h-152zM270 566q0 -205 139 -335q128 -119 307 -119q176 0 303 117q139 127 139 328q0 138 -68 248 q-66 109 -188 163q-88 40 -188 40q-186 0 -316 -130q-128 -129 -128 -312z" />
<glyph unicode="q" horiz-adv-x="1397" vert-adv-y="2458" d="M86 558q0 177 92 323q89 141 242 211q120 55 257 55q173 0 306 -86q78 -50 133 -133v192h152v-1513h-152v586q-151 -220 -437 -220q-239 0 -407 157q-186 173 -186 428zM240 557q0 -201 139 -328q127 -117 303 -117q178 0 306 119q139 130 139 323q0 198 -128 324 q-133 130 -317 130q-175 0 -300 -113q-142 -129 -142 -338z" />
<glyph unicode="r" horiz-adv-x="616" vert-adv-y="2458" d="M129 0v1120h152v-160q49 100 139 147q71 35 178 40v-150q-125 -10 -206 -73q-110 -90 -111 -272v-652h-152z" />
<glyph unicode="s" horiz-adv-x="795" vert-adv-y="2458" d="M37 330h150q6 -91 47 -144q57 -74 163 -74q81 0 133 52q56 56 56 143q0 97 -72 145q-43 29 -144 70q-130 53 -154 68q-138 86 -138 242q0 136 91 226q89 89 226 89q168 0 260 -126q52 -73 56 -177h-154q-6 84 -49 123q-45 41 -114 41q-66 0 -113 -45q-49 -48 -49 -116 q0 -97 102 -148q34 -17 212 -91q194 -81 194 -286q0 -155 -99 -254q-94 -95 -244 -95q-124 0 -216 63q-141 96 -144 294z" />
<glyph unicode="t" horiz-adv-x="694" vert-adv-y="2458" d="M25 983v137h242v393h152v-393h251v-137h-251v-983h-152v983h-242z" />
<glyph unicode="u" horiz-adv-x="1245" vert-adv-y="2458" d="M129 517v603h152v-603q0 -176 52 -264q40 -68 114 -104q76 -37 168 -37q183 0 281 140q68 98 68 292v576h152v-1120h-152v173q-109 -200 -361 -200q-256 0 -385 178q-89 122 -89 366z" />
<glyph unicode="v" vert-adv-y="2458" d="M16 1120h155l392 -942l402 942h153l-472 -1120h-159z" />
<glyph unicode="w" horiz-adv-x="1702" vert-adv-y="2458" d="M14 1120h151l357 -937l264 800h125l264 -800l364 937h148l-433 -1120h-163l-244 744l-241 -744h-163z" />
<glyph unicode="x" horiz-adv-x="983" vert-adv-y="2458" d="M16 0l390 570l-390 550h173l301 -432l302 432h174l-391 -550l391 -570h-174l-302 448l-301 -448h-173z" />
<glyph unicode="y" horiz-adv-x="1098" vert-adv-y="2458" d="M18 1120h165l354 -892l380 892h162l-648 -1513h-161l183 429z" />
<glyph unicode="z" horiz-adv-x="870" vert-adv-y="2458" d="M20 0v136l618 847h-598v137h771v-129l-613 -854h651v-137h-829z" />
<glyph unicode="{" horiz-adv-x="719" vert-adv-y="2458" d="M76 557v141q87 14 118 39q43 33 44 142v350q3 114 26 161q39 95 155 114q40 7 136 9v-137q-86 -8 -111 -20q-47 -22 -48 -126v-349q0 -129 -56 -186q-31 -31 -77 -49q-29 -11 -50 -19q28 -11 37 -14q77 -27 115 -85q31 -52 31 -155v-348q2 -97 42 -121q26 -16 75 -22 q36 -3 42 -4v-137q-101 3 -144 11t-79 32q-66 43 -82 126q-12 59 -12 115v350q-1 109 -44 142q-31 25 -118 40z" />
<glyph unicode="|" horiz-adv-x="1376" vert-adv-y="2458" d="M623 0v1513h131v-1513h-131z" />
<glyph unicode="}" horiz-adv-x="719" vert-adv-y="2458" d="M78 -122q18 2 23 3q73 6 89 17q47 24 48 127v348q1 130 56 187q31 31 77 48q26 10 49 19q-27 11 -36 14q-76 27 -115 85q-31 52 -31 155v349q0 93 -39 121q-19 16 -121 25v137q137 -3 190 -24q90 -39 113 -129q15 -53 15 -131v-350q1 -109 42 -142q30 -25 113 -39v-141 q-83 -15 -113 -40q-41 -33 -42 -142v-350q-1 -101 -20 -146q-28 -85 -121 -119q-49 -16 -177 -19v137z" />
<glyph unicode="~" horiz-adv-x="1241" vert-adv-y="2458" d="M104 525q51 94 95 146q87 101 198 101q66 0 157 -38l134 -56q112 -47 163 -47q95 0 196 168l89 -97q-36 -73 -92 -130q-96 -99 -194 -99q-66 0 -192 52l-111 47q-102 42 -150 42q-82 0 -136 -73q-25 -33 -72 -112z" />
<glyph unicode="&#xa0;" horiz-adv-x="567" vert-adv-y="2458" />
<glyph unicode="&#xa1;" horiz-adv-x="604" vert-adv-y="2458" d="M227 -393v1114h152v-1114h-152zM227 862v258h152v-258h-152z" />
<glyph unicode="&#xa2;" vert-adv-y="2458" d="M92 782q0 148 82 272q119 179 356 203v191h135v-191q125 -15 230 -99q69 -54 121 -149q14 -27 26 -61h-170q-96 172 -292 172q-147 0 -243 -97q-94 -95 -94 -238q0 -133 85 -230q99 -111 250 -111q112 0 204 69q33 25 82 81h166q-43 -112 -140 -189q-103 -79 -225 -95 v-183h-135v183q-105 9 -198 60q-124 69 -184 186q-56 108 -56 226z" />
<glyph unicode="&#xa3;" vert-adv-y="2458" d="M37 711v137h153q-45 109 -45 201q0 155 77 278q68 109 185 165q99 48 220 48q151 0 275 -70q134 -76 199 -224q25 -59 34 -138h-143q-23 107 -86 178q-104 117 -276 117q-154 0 -247 -105q-86 -96 -86 -247q0 -75 23 -134q9 -23 34 -69h582v-137h-439q146 -160 146 -334 q0 -104 -60 -240h117q182 0 264 75q44 40 70 103q28 65 28 133q0 37 -13 101h147q17 -61 17 -113q0 -121 -59 -226q-71 -127 -210 -176q-95 -34 -239 -34h-584v137h284q86 95 86 237q0 97 -50 179q-31 52 -99 115q-14 12 -48 43h-257z" />
<glyph unicode="&#xa4;" vert-adv-y="2458" d="M53 621q0 171 96 304l-89 86l112 111l87 -86q150 97 306 97q174 0 308 -96l87 88l111 -113l-85 -87q95 -138 95 -311q0 -184 -95 -302l84 -85l-110 -109l-83 86q-56 -36 -95 -55q-97 -47 -217 -47q-123 0 -225 51q-33 17 -82 51l-87 -86l-108 111l85 85q-95 131 -95 307z M198 618q0 -103 51 -193q51 -88 146 -135q85 -41 176 -41q155 0 259 104q106 105 106 267q0 163 -106 268q-102 102 -257 102q-168 0 -272 -108q-103 -106 -103 -264z" />
<glyph unicode="&#xa5;" vert-adv-y="2458" d="M0 1513h156l454 -844l440 844h156l-299 -565h211v-137h-284l-98 -188h368v-137h-421v-486h-150v486h-430v137h375l-101 188h-289v137h216z" />
<glyph unicode="&#xa6;" horiz-adv-x="1376" vert-adv-y="2458" d="M623 0v604h131v-604h-131zM623 909v604h131v-604h-131z" />
<glyph unicode="&#xa7;" horiz-adv-x="1260" vert-adv-y="2458" d="M178 694q0 188 177 311q-79 85 -79 202q0 119 71 206q104 127 282 127q184 0 294 -128q58 -67 66 -171h-146q-34 162 -214 162q-95 0 -151 -51q-63 -58 -63 -142q0 -117 122 -175l322 -152q224 -106 224 -292q0 -103 -63 -197q-33 -50 -92 -94q98 -104 98 -225 q0 -108 -55 -193q-111 -171 -330 -171q-141 0 -249 76q-109 77 -155 218q-18 55 -20 126h139q6 -87 44 -149q81 -134 241 -134q112 0 183 71q63 64 63 152q0 73 -54 120q-55 48 -139 89l-292 144q-117 58 -164 108q-60 66 -60 162zM317 717q0 -94 110 -148l406 -197 q36 26 61 61q50 69 50 140q0 115 -126 174l-384 182q-43 -29 -70 -70q-47 -70 -47 -142z" />
<glyph unicode="&#xa8;" horiz-adv-x="756" vert-adv-y="2458" d="M152 1276v258h152v-258h-152zM453 1276v258h152v-258h-152z" />
<glyph unicode="&#xa9;" horiz-adv-x="1530" vert-adv-y="2458" d="M-18 757q0 220 115 410q112 185 313 288q166 85 353 85q221 0 410 -116t289 -311q85 -168 85 -366q0 -212 -115 -400t-312 -288q-168 -86 -355 -86q-220 0 -409 116q-188 115 -288 311q-86 168 -86 357zM97 757q0 -191 99 -355q98 -162 266 -249q143 -74 303 -74 q187 0 348 100q161 99 246 270q73 144 73 299q0 199 -98 363q-96 160 -266 249q-143 74 -305 74q-185 0 -347 -100q-161 -100 -246 -269q-73 -146 -73 -308zM334 763q0 189 132 321t319 132q157 0 278 -93q72 -55 124 -145h-151q-105 124 -249 124q-148 0 -245 -112 q-83 -97 -83 -228q0 -134 89 -235q98 -110 237 -110q141 0 241 117h154q-51 -91 -138 -152q-113 -80 -259 -80q-187 0 -320 140q-129 136 -129 321z" />
<glyph unicode="&#xaa;" horiz-adv-x="756" vert-adv-y="2458" d="M63 654v104h631v-104h-631zM63 1216q0 122 84 211q91 98 228 98q73 0 140 -41q44 -26 68 -63v92h98v-595h-98v91q-46 -56 -89 -77q-59 -28 -123 -28q-78 0 -156 45q-74 44 -115 122q-37 70 -37 145zM172 1219q0 -88 59 -150q63 -65 146 -65q77 0 139 63q61 61 61 146 q0 89 -60 149q-62 63 -140 63q-80 0 -143 -63q-62 -61 -62 -143z" />
<glyph unicode="&#xab;" horiz-adv-x="870" vert-adv-y="2458" d="M82 614l232 408l120 -65l-192 -343l192 -344l-120 -67zM433 614l235 408l121 -65l-193 -343l193 -344l-121 -67z" />
<glyph unicode="&#xac;" horiz-adv-x="1241" vert-adv-y="2458" d="M104 743v150h1032v-590h-147v440h-885z" />
<glyph unicode="&#xad;" horiz-adv-x="680" vert-adv-y="2458" d="M63 477v129h555v-129h-555z" />
<glyph unicode="&#xae;" horiz-adv-x="1530" vert-adv-y="2458" d="M-18 757q0 220 115 410q112 185 313 288q166 85 353 85q221 0 410 -116t289 -311q85 -168 85 -366q0 -212 -115 -400t-312 -288q-168 -86 -355 -86q-220 0 -409 116q-188 115 -288 311q-86 168 -86 357zM97 757q0 -191 99 -355q98 -162 266 -249q143 -74 303 -74 q187 0 348 100q161 99 246 270q73 144 73 299q0 199 -98 363q-96 160 -266 249q-143 74 -305 74q-185 0 -347 -100q-161 -100 -246 -269q-73 -146 -73 -308zM508 322v876h271q157 0 234 -74q81 -76 81 -206q0 -151 -110 -222q-53 -34 -145 -47l246 -327h-156l-296 413v-413 h-125zM633 748h90q106 0 164 34q78 45 78 136q0 71 -51 115q-53 47 -143 47h-138v-332z" />
<glyph unicode="&#xaf;" horiz-adv-x="1024" vert-adv-y="2458" d="M0 1632v125h1024v-125h-1024z" />
<glyph unicode="&#xb0;" horiz-adv-x="819" vert-adv-y="2458" d="M102 1093q0 142 104 232q92 80 211 80q131 0 220 -97q80 -88 80 -217q0 -130 -86 -219q-91 -94 -222 -94q-143 0 -234 109q-73 87 -73 206zM217 1091q0 -72 50 -130q57 -66 142 -66q79 0 133 54q58 58 58 143q0 78 -51 134q-56 62 -136 62t-136 -55q-60 -58 -60 -142z " />
<glyph unicode="&#xb1;" horiz-adv-x="1241" vert-adv-y="2458" d="M104 0v152h1032v-152h-1032zM104 604v152h438v442h158v-442h436v-152h-436v-349h-158v349h-438z" />
<glyph unicode="&#xb2;" horiz-adv-x="680" vert-adv-y="2458" d="M25 589v104l334 307q85 78 110 108q62 71 62 137q0 71 -57 124q-53 49 -128 49q-84 0 -140 -59q-47 -50 -49 -130q0 -27 -1 -35h-123q1 98 22 151q38 93 129 143q74 42 166 42q128 0 215 -83q91 -88 91 -205q0 -89 -52 -160q-44 -60 -124 -133l-272 -247h444v-113h-627z " />
<glyph unicode="&#xb3;" horiz-adv-x="680" vert-adv-y="2458" d="M27 899h124q7 -92 36 -132q59 -81 151 -81q76 0 133 54t57 131q0 87 -70 143q-46 37 -114 42q-28 2 -81 2v111q40 -2 43 -2q69 0 109 26q55 36 55 100q0 52 -37 89q-35 36 -94 36q-68 0 -105 -59q-21 -34 -21 -81v-18h-124q1 100 46 165q72 105 207 105q106 0 179 -71 q74 -70 74 -173q0 -59 -28 -104q-15 -26 -56 -63q143 -92 143 -245q0 -129 -101 -218q-92 -83 -214 -83q-102 0 -186 60q-90 65 -115 171q-9 36 -11 95z" />
<glyph unicode="&#xb4;" horiz-adv-x="768" vert-adv-y="2458" d="M152 1363l394 238l71 -119l-395 -233z" />
<glyph unicode="&#xb5;" horiz-adv-x="1245" vert-adv-y="2458" d="M129 -393v1513h152v-576q0 -149 26 -220q34 -90 125 -152t196 -62q114 0 201 66q82 62 113 168q22 77 22 200v576h152v-1120h-152v173q-104 -201 -335 -201q-227 0 -348 201v-566h-152z" />
<glyph unicode="&#xb6;" horiz-adv-x="1155" vert-adv-y="2458" d="M76 1125q0 131 73 230q66 91 173 129q78 29 210 29h474v-1785h-154v1648h-233v-1648h-154v998q-126 14 -218 72q-76 48 -120 128q-51 90 -51 199z" />
<glyph unicode="&#xb7;" horiz-adv-x="567" vert-adv-y="2458" d="M207 469v258h152v-258h-152z" />
<glyph unicode="&#xb8;" horiz-adv-x="664" vert-adv-y="2458" d="M152 -286l91 10q19 -72 91 -72q41 0 66 27t25 68q0 46 -25 75q-27 31 -71 31q-48 0 -86 -50l-61 35l72 162h74l-38 -96q37 16 67 16q62 0 105 -38q51 -45 51 -127q0 -80 -46 -133q-51 -58 -135 -58q-146 0 -180 150z" />
<glyph unicode="&#xb9;" horiz-adv-x="680" vert-adv-y="2458" d="M201 1400v113h276v-923h-123v810h-153z" />
<glyph unicode="&#xba;" horiz-adv-x="756" vert-adv-y="2458" d="M66 654v104h625v-104h-625zM66 1219q0 128 97 218q93 88 216 88q136 0 229 -102q83 -90 83 -207q0 -91 -54 -172q-45 -68 -120 -105q-68 -34 -139 -34q-125 0 -215 86q-97 92 -97 228zM174 1215q0 -88 59 -148q61 -62 145 -62q85 0 145 62q59 60 59 145q0 93 -59 152 q-62 61 -145 61q-84 0 -145 -61q-59 -60 -59 -149z" />
<glyph unicode="&#xbb;" horiz-adv-x="870" vert-adv-y="2458" d="M82 270l192 344l-192 343l120 65l236 -408l-236 -411zM436 270l193 344l-193 343l121 65l232 -408l-232 -411z" />
<glyph unicode="&#xbc;" horiz-adv-x="1702" vert-adv-y="2458" d="M207 1400v113h277v-923h-123v810h-154zM432 0l699 1513h112l-701 -1513h-110zM963 162v102l463 660h133v-649h86v-113h-86v-162h-123v162h-473zM1117 275h319v460z" />
<glyph unicode="&#xbd;" horiz-adv-x="1702" vert-adv-y="2458" d="M197 1400v113h277v-923h-123v810h-154zM422 0l699 1513h112l-701 -1513h-110zM1037 0v104l334 307q83 76 110 107q61 69 61 136q0 71 -57 124q-53 49 -128 49q-83 0 -139 -59q-47 -50 -49 -129q0 -27 -1 -35h-123q1 98 22 151q38 93 128 143q75 42 167 42q128 0 214 -83 q91 -88 91 -205q0 -88 -52 -160q-43 -59 -124 -132l-271 -247h443v-113h-626z" />
<glyph unicode="&#xbe;" horiz-adv-x="1702" vert-adv-y="2458" d="M27 899h123q7 -92 37 -132q59 -81 151 -81q76 0 133 54q58 54 58 131q0 87 -71 143q-46 37 -114 42q-28 2 -82 2v111q40 -2 44 -2q67 0 109 26q54 35 54 100q0 52 -36 89q-36 36 -94 36q-68 0 -106 -59q-21 -34 -21 -81v-18h-124q1 100 46 165q73 105 207 105 q106 0 180 -71q73 -71 73 -173q0 -59 -27 -104q-15 -26 -56 -63q143 -92 143 -245q0 -129 -100 -218q-93 -83 -215 -83q-102 0 -186 60q-122 87 -126 266zM489 0l700 1513h111l-700 -1513h-111zM963 162v102l463 660h133v-649h86v-113h-86v-162h-123v162h-473zM1117 275h319 v460z" />
<glyph unicode="&#xbf;" horiz-adv-x="1210" vert-adv-y="2458" d="M135 24q0 118 63 214q40 62 122 136q80 72 110 108q70 85 88 157q9 38 11 86h144q1 -22 1 -31q0 -108 -67 -218q-41 -68 -148 -169q-80 -75 -118 -126q-54 -70 -54 -160q0 -129 84 -214q89 -90 228 -90q108 0 193 57q97 65 127 194q10 41 14 112h144q-3 -177 -74 -290 q-62 -97 -163 -152q-107 -58 -241 -58q-205 0 -336 129q-128 125 -128 315zM524 862v258h152v-258h-152z" />
<glyph unicode="&#xc0;" horiz-adv-x="1516" vert-adv-y="2458" d="M23 0l648 1513h172l650 -1513h-166l-219 510h-705l-221 -510h-159zM454 1843l65 118l406 -225l-67 -115zM461 647h588l-291 694z" />
<glyph unicode="&#xc1;" horiz-adv-x="1516" vert-adv-y="2458" d="M23 0l648 1513h172l650 -1513h-166l-219 510h-705l-221 -510h-159zM461 647h588l-291 694zM594 1736l394 238l71 -119l-395 -234z" />
<glyph unicode="&#xc2;" horiz-adv-x="1516" vert-adv-y="2458" d="M23 0l648 1513h172l650 -1513h-166l-219 510h-705l-221 -510h-159zM396 1649l297 258h136l292 -258h-182l-177 151l-179 -151h-187zM461 647h588l-291 694z" />
<glyph unicode="&#xc3;" horiz-adv-x="1516" vert-adv-y="2458" d="M23 0l648 1513h172l650 -1513h-166l-219 510h-705l-221 -510h-159zM461 647h588l-291 694zM468 1763q75 101 190 101q44 0 122 -35q63 -29 98 -29q56 0 116 64l68 -94q-20 -32 -80 -71q-45 -29 -106 -29q-41 0 -137 44q-46 21 -80 21q-45 0 -79 -28q-3 -2 -31 -25 q-4 -4 -14 -12z" />
<glyph unicode="&#xc4;" horiz-adv-x="1516" vert-adv-y="2458" d="M23 0l648 1513h172l650 -1513h-166l-219 510h-705l-221 -510h-159zM461 647h588l-291 694zM533 1649v258h152v-258h-152zM834 1649v258h152v-258h-152z" />
<glyph unicode="&#xc5;" horiz-adv-x="1516" vert-adv-y="2458" d="M23 0l648 1513h172l650 -1513h-166l-219 510h-705l-221 -510h-159zM461 647h588l-291 694zM570 1808q0 78 53 133q57 57 137 57q76 0 132 -56q55 -55 55 -133q0 -79 -56 -133q-55 -55 -133 -55q-77 0 -132 54q-56 55 -56 133zM655 1808q0 -43 31 -72q30 -30 72 -30t73 29 q31 30 31 74q0 43 -30 73q-32 31 -73 31q-45 0 -75 -32q-29 -31 -29 -73z" />
<glyph unicode="&#xc6;" horiz-adv-x="2032" vert-adv-y="2458" d="M22 0l1047 1513h848v-137h-654v-542h632v-137h-632v-560h654v-137h-805v512h-555l-355 -512h-180zM652 649h460v671z" />
<glyph unicode="&#xc7;" horiz-adv-x="1665" vert-adv-y="2458" d="M90 752q0 349 237 576q221 212 546 212q294 0 503 -169q129 -105 194 -251h-169q-77 120 -165 178q-155 103 -355 103q-276 0 -456 -187q-87 -91 -135 -213q-46 -118 -46 -244q0 -275 196 -464q92 -88 210 -135q114 -46 233 -46q216 0 375 125q68 53 150 160h169 q-114 -216 -303 -326q-173 -96 -395 -98l-50 -113q38 15 71 15q59 0 101 -35q57 -49 57 -138q0 -80 -47 -133q-55 -61 -143 -61q-147 0 -190 152l96 14q24 -70 93 -70q44 0 68 25q25 26 25 70q0 46 -30 74q-27 24 -66 24q-49 0 -90 -44l-60 35l84 188q-86 13 -143 28 q-242 63 -406 271q-159 202 -159 477z" />
<glyph unicode="&#xc8;" horiz-adv-x="1098" vert-adv-y="2458" d="M156 0v1513h827v-137h-675v-542h653v-137h-653v-560h675v-137h-827zM266 1843l65 118l406 -225l-67 -115z" />
<glyph unicode="&#xc9;" horiz-adv-x="1098" vert-adv-y="2458" d="M156 0v1513h827v-137h-675v-542h653v-137h-653v-560h675v-137h-827zM406 1736l394 238l71 -119l-395 -234z" />
<glyph unicode="&#xca;" horiz-adv-x="1098" vert-adv-y="2458" d="M156 0v1513h827v-137h-675v-542h653v-137h-653v-560h675v-137h-827zM207 1649l297 258h136l292 -258h-182l-177 151l-179 -151h-187z" />
<glyph unicode="&#xcb;" horiz-adv-x="1098" vert-adv-y="2458" d="M156 0v1513h827v-137h-675v-542h653v-137h-653v-560h675v-137h-827zM344 1649v258h152v-258h-152zM645 1649v258h152v-258h-152z" />
<glyph unicode="&#xcc;" horiz-adv-x="463" vert-adv-y="2458" d="M-4 1843l65 118l406 -225l-67 -115zM156 0v1513h152v-1513h-152z" />
<glyph unicode="&#xcd;" horiz-adv-x="463" vert-adv-y="2458" d="M-1 1736l394 238l71 -119l-395 -234zM156 0v1513h152v-1513h-152z" />
<glyph unicode="&#xce;" horiz-adv-x="463" vert-adv-y="2458" d="M-131 1649l297 258h136l292 -258h-182l-177 151l-179 -151h-187zM156 0v1513h152v-1513h-152z" />
<glyph unicode="&#xcf;" horiz-adv-x="463" vert-adv-y="2458" d="M6 1649v258h152v-258h-152zM157 0v1513h152v-1513h-152zM307 1649v258h152v-258h-152z" />
<glyph unicode="&#xd0;" horiz-adv-x="1618" vert-adv-y="2458" d="M53 711v137h197v665h357q214 0 345 -29q257 -56 414 -246q162 -194 162 -486q0 -271 -143 -456q-147 -191 -381 -256q-141 -40 -346 -40h-408v711h-197zM402 137h211q209 0 335 34q219 59 332 241q94 153 94 347q0 205 -106 361q-116 169 -330 224q-123 32 -325 32h-211 v-528h419v-137h-419v-574z" />
<glyph unicode="&#xd1;" horiz-adv-x="1516" vert-adv-y="2458" d="M156 0v1513h206l846 -1255v1255h152v-1513h-152l-900 1332v-1332h-152zM475 1763q75 101 190 101q44 0 122 -35q63 -29 98 -29q56 0 116 64l68 -94q-20 -32 -80 -71q-45 -29 -106 -29q-41 0 -137 44q-46 21 -80 21q-45 0 -79 -28q-3 -2 -31 -25q-4 -4 -14 -12z" />
<glyph unicode="&#xd2;" horiz-adv-x="1780" vert-adv-y="2458" d="M90 765q0 195 102 374q107 187 304 297q185 104 394 104q241 0 448 -137q185 -122 277 -316q75 -157 75 -331q0 -301 -208 -524q-108 -117 -254 -184q-163 -75 -336 -75q-244 0 -450 136q-183 122 -277 317q-75 157 -75 339zM244 762q0 -245 159 -427q91 -103 217 -162 q130 -61 272 -61q196 0 363 115q149 102 224 264q57 126 57 263q0 177 -92 331q-92 155 -257 242q-138 74 -296 74q-184 0 -342 -99q-154 -97 -236 -262q-69 -138 -69 -278zM586 1843l65 118l406 -225l-67 -115z" />
<glyph unicode="&#xd3;" horiz-adv-x="1780" vert-adv-y="2458" d="M90 765q0 195 102 374q107 187 304 297q185 104 394 104q241 0 448 -137q185 -122 277 -316q75 -157 75 -331q0 -301 -208 -524q-108 -117 -254 -184q-163 -75 -336 -75q-244 0 -450 136q-183 122 -277 317q-75 157 -75 339zM244 762q0 -245 159 -427q91 -103 217 -162 q130 -61 272 -61q196 0 363 115q149 102 224 264q57 126 57 263q0 177 -92 331q-92 155 -257 242q-138 74 -296 74q-184 0 -342 -99q-154 -97 -236 -262q-69 -138 -69 -278zM726 1736l394 238l71 -119l-395 -234z" />
<glyph unicode="&#xd4;" horiz-adv-x="1780" vert-adv-y="2458" d="M90 765q0 195 102 374q107 187 304 297q185 104 394 104q241 0 448 -137q185 -122 277 -316q75 -157 75 -331q0 -301 -208 -524q-108 -117 -254 -184q-163 -75 -336 -75q-244 0 -450 136q-183 122 -277 317q-75 157 -75 339zM244 762q0 -245 159 -427q91 -103 217 -162 q130 -61 272 -61q196 0 363 115q149 102 224 264q57 126 57 263q0 177 -92 331q-92 155 -257 242q-138 74 -296 74q-184 0 -342 -99q-154 -97 -236 -262q-69 -138 -69 -278zM527 1649l297 258h136l292 -258h-182l-177 151l-179 -151h-187z" />
<glyph unicode="&#xd5;" horiz-adv-x="1780" vert-adv-y="2458" d="M90 765q0 195 102 374q107 187 304 297q185 104 394 104q241 0 448 -137q185 -122 277 -316q75 -157 75 -331q0 -301 -208 -524q-108 -117 -254 -184q-163 -75 -336 -75q-244 0 -450 136q-183 122 -277 317q-75 157 -75 339zM244 762q0 -245 159 -427q91 -103 217 -162 q130 -61 272 -61q196 0 363 115q149 102 224 264q57 126 57 263q0 177 -92 331q-92 155 -257 242q-138 74 -296 74q-184 0 -342 -99q-154 -97 -236 -262q-69 -138 -69 -278zM613 1763q75 101 190 101q44 0 122 -35q63 -29 98 -29q56 0 116 64l68 -94q-20 -32 -80 -71 q-45 -29 -106 -29q-41 0 -137 44q-46 21 -80 21q-45 0 -79 -28q-3 -2 -31 -25q-4 -4 -14 -12z" />
<glyph unicode="&#xd6;" horiz-adv-x="1780" vert-adv-y="2458" d="M90 765q0 195 102 374q107 187 304 297q185 104 394 104q241 0 448 -137q185 -122 277 -316q75 -157 75 -331q0 -301 -208 -524q-108 -117 -254 -184q-163 -75 -336 -75q-244 0 -450 136q-183 122 -277 317q-75 157 -75 339zM244 762q0 -245 159 -427q91 -103 217 -162 q130 -61 272 -61q196 0 363 115q149 102 224 264q57 126 57 263q0 177 -92 331q-92 155 -257 242q-138 74 -296 74q-184 0 -342 -99q-154 -97 -236 -262q-69 -138 -69 -278zM663 1649v258h152v-258h-152zM964 1649v258h152v-258h-152z" />
<glyph unicode="&#xd7;" horiz-adv-x="1241" vert-adv-y="2458" d="M104 203l411 410l-411 410l106 106l410 -411l410 410l106 -105l-410 -410l410 -410l-106 -106l-410 410l-410 -410z" />
<glyph unicode="&#xd8;" horiz-adv-x="1778" vert-adv-y="2458" d="M90 757q0 307 204 529q107 117 253 183q158 71 336 71q183 0 345 -73q39 -17 75 -42l192 257l111 -87l-188 -252q270 -229 270 -581q0 -307 -205 -533q-108 -119 -253 -185q-156 -71 -334 -71q-228 0 -420 114l-192 -257l-114 83l191 256q-39 32 -66 61 q-205 218 -205 527zM244 750q0 -274 204 -467l771 1029q-148 89 -339 89q-183 0 -336 -94t-233 -266q-67 -142 -67 -291zM560 199q164 -87 332 -87q296 0 486 221q156 182 156 423q0 276 -203 472z" />
<glyph unicode="&#xd9;" horiz-adv-x="1341" vert-adv-y="2458" d="M156 570v943h152v-943q0 -206 70 -315q43 -67 122 -105q80 -38 171 -38q131 0 227 72q136 103 136 386v943h152v-943q0 -184 -39 -288q-58 -157 -201 -239q-123 -70 -275 -70q-179 0 -313 94q-134 96 -177 259q-25 93 -25 244zM367 1843l65 118l406 -225l-67 -115z" />
<glyph unicode="&#xda;" horiz-adv-x="1341" vert-adv-y="2458" d="M156 570v943h152v-943q0 -206 70 -315q43 -67 122 -105q80 -38 171 -38q131 0 227 72q136 103 136 386v943h152v-943q0 -184 -39 -288q-58 -157 -201 -239q-123 -70 -275 -70q-179 0 -313 94q-134 96 -177 259q-25 93 -25 244zM507 1736l394 238l71 -119l-395 -234z" />
<glyph unicode="&#xdb;" horiz-adv-x="1341" vert-adv-y="2458" d="M156 570v943h152v-943q0 -206 70 -315q43 -67 122 -105q80 -38 171 -38q131 0 227 72q136 103 136 386v943h152v-943q0 -184 -39 -288q-58 -157 -201 -239q-123 -70 -275 -70q-179 0 -313 94q-134 96 -177 259q-25 93 -25 244zM309 1649l297 258h136l292 -258h-182 l-177 151l-179 -151h-187z" />
<glyph unicode="&#xdc;" horiz-adv-x="1341" vert-adv-y="2458" d="M156 570v943h152v-943q0 -206 70 -315q43 -67 122 -105q80 -38 171 -38q131 0 227 72q136 103 136 386v943h152v-943q0 -184 -39 -288q-58 -157 -201 -239q-123 -70 -275 -70q-179 0 -313 94q-134 96 -177 259q-25 93 -25 244zM445 1649v258h152v-258h-152zM745 1649v258 h152v-258h-152z" />
<glyph unicode="&#xdd;" horiz-adv-x="1212" vert-adv-y="2458" d="M4 1513h168l431 -848l439 848h167l-529 -1008v-505h-152v505zM441 1736l394 238l71 -119l-395 -234z" />
<glyph unicode="&#xde;" horiz-adv-x="1212" vert-adv-y="2458" d="M156 0v1513h137v-272h282q183 0 285 -29q298 -84 298 -430q0 -237 -151 -348q-89 -66 -208 -82q-91 -12 -200 -12h-291v-340h-152zM308 477h280q200 0 292 51q64 36 95 109q29 68 29 146q0 206 -138 276q-90 45 -342 45h-216v-627z" />
<glyph unicode="&#xdf;" vert-adv-y="2458" d="M121 0v984q0 248 73 375q51 89 149 136q91 45 197 45q186 0 309 -124q122 -122 122 -303q0 -124 -59 -214q-37 -55 -115 -102q110 -36 178 -111q99 -108 99 -279q0 -188 -121 -311q-122 -123 -298 -123q-267 0 -382 250v-223h-152zM273 416h104q2 -104 53 -182 q79 -122 219 -122q119 0 196 88q75 85 75 204t-78 202q-92 97 -291 97q-18 0 -92 -4v137h19q150 0 234 64q105 79 105 222q0 120 -77 198q-78 81 -198 81q-102 0 -172 -63q-69 -61 -88 -186q-9 -59 -9 -168v-568z" />
<glyph unicode="&#xe0;" horiz-adv-x="1399" vert-adv-y="2458" d="M86 557q0 239 156 407q170 183 433 183q167 0 290 -75q81 -49 153 -150v198h152v-1120h-152v197q-76 -103 -156 -153q-112 -71 -275 -71q-258 0 -428 165q-173 168 -173 419zM240 568q0 -188 124 -319q130 -137 324 -137q182 0 305 131q125 131 125 322q0 190 -123 312 q-132 131 -316 131t-312 -129q-58 -60 -92 -140q-35 -86 -35 -171zM415 1470l65 119l406 -226l-67 -114z" />
<glyph unicode="&#xe1;" horiz-adv-x="1399" vert-adv-y="2458" d="M86 557q0 239 156 407q170 183 433 183q167 0 290 -75q81 -49 153 -150v198h152v-1120h-152v197q-76 -103 -156 -153q-112 -71 -275 -71q-258 0 -428 165q-173 168 -173 419zM240 568q0 -188 124 -319q130 -137 324 -137q182 0 305 131q125 131 125 322q0 190 -123 312 q-132 131 -316 131t-312 -129q-58 -60 -92 -140q-35 -86 -35 -171zM555 1363l394 238l71 -119l-395 -233z" />
<glyph unicode="&#xe2;" horiz-adv-x="1399" vert-adv-y="2458" d="M86 557q0 239 156 407q170 183 433 183q167 0 290 -75q81 -49 153 -150v198h152v-1120h-152v197q-76 -103 -156 -153q-112 -71 -275 -71q-258 0 -428 165q-173 168 -173 419zM240 568q0 -188 124 -319q130 -137 324 -137q182 0 305 131q125 131 125 322q0 190 -123 312 q-132 131 -316 131t-312 -129q-58 -60 -92 -140q-35 -86 -35 -171zM356 1276l297 258h136l292 -258h-182l-177 151l-179 -151h-187z" />
<glyph unicode="&#xe3;" horiz-adv-x="1399" vert-adv-y="2458" d="M86 557q0 239 156 407q170 183 433 183q167 0 290 -75q81 -49 153 -150v198h152v-1120h-152v197q-76 -103 -156 -153q-112 -71 -275 -71q-258 0 -428 165q-173 168 -173 419zM240 568q0 -188 124 -319q130 -137 324 -137q182 0 305 131q125 131 125 322q0 190 -123 312 q-132 131 -316 131t-312 -129q-58 -60 -92 -140q-35 -86 -35 -171zM422 1389q26 36 65 61q59 40 125 40q44 0 122 -35q63 -29 98 -29q56 0 116 65l68 -94q-19 -32 -80 -72q-44 -29 -106 -29q-41 0 -137 44q-46 21 -80 21q-45 0 -79 -27q-7 -6 -31 -26q-4 -4 -14 -11z" />
<glyph unicode="&#xe4;" horiz-adv-x="1399" vert-adv-y="2458" d="M86 557q0 239 156 407q170 183 433 183q167 0 290 -75q81 -49 153 -150v198h152v-1120h-152v197q-76 -103 -156 -153q-112 -71 -275 -71q-258 0 -428 165q-173 168 -173 419zM240 568q0 -188 124 -319q130 -137 324 -137q182 0 305 131q125 131 125 322q0 190 -123 312 q-132 131 -316 131t-312 -129q-58 -60 -92 -140q-35 -86 -35 -171zM494 1276v258h152v-258h-152zM794 1276v258h152v-258h-152z" />
<glyph unicode="&#xe5;" horiz-adv-x="1399" vert-adv-y="2458" d="M86 557q0 239 156 407q170 183 433 183q167 0 290 -75q81 -49 153 -150v198h152v-1120h-152v197q-76 -103 -156 -153q-112 -71 -275 -71q-258 0 -428 165q-173 168 -173 419zM240 568q0 -188 124 -319q130 -137 324 -137q182 0 305 131q125 131 125 322q0 190 -123 312 q-132 131 -316 131t-312 -129q-58 -60 -92 -140q-35 -86 -35 -171zM530 1435q0 78 54 133q56 57 136 57q76 0 132 -56q55 -55 55 -133q0 -79 -56 -133q-55 -55 -133 -55q-77 0 -132 54q-56 55 -56 133zM615 1435q0 -43 31 -72q30 -30 72 -30t73 29q31 30 31 74q0 43 -31 73 q-31 31 -72 31q-44 0 -75 -32q-29 -31 -29 -73z" />
<glyph unicode="&#xe6;" horiz-adv-x="2370" vert-adv-y="2458" d="M85 557q0 161 83 306q80 140 216 215q127 69 292 69t290 -73q84 -49 156 -149v195h145v-195q82 104 171 153q126 69 271 69q185 0 329 -99q189 -132 235 -348q16 -77 16 -194h-1015q14 -136 104 -240q59 -69 141 -108q94 -46 199 -46q171 0 290 114q65 63 96 139h158 q-47 -143 -161 -245q-164 -147 -383 -147q-267 0 -451 215v-188h-145v188q-82 -98 -169 -148q-117 -67 -275 -67q-289 0 -458 206q-135 164 -135 378zM241 560q0 -166 106 -294q128 -154 334 -154q185 0 312 126q60 59 94 138q39 91 39 186q0 212 -142 335 q-128 111 -302 111q-188 0 -313 -126q-59 -59 -93 -143q-35 -87 -35 -179zM1281 643h860q-27 149 -126 244q-126 121 -304 121q-209 0 -339 -155q-73 -89 -91 -210z" />
<glyph unicode="&#xe7;" horiz-adv-x="1325" vert-adv-y="2458" d="M86 563q0 239 169 409q175 175 431 175q238 0 408 -152q98 -88 149 -215h-169q-55 94 -131 147q-116 81 -260 81q-180 0 -304 -118q-67 -63 -105 -156q-35 -86 -35 -175q0 -133 75 -247q70 -107 187 -159q88 -40 188 -40q151 0 264 87q56 43 121 130h171 q-53 -102 -106 -163q-170 -191 -438 -194l-37 -92q38 15 66 15q63 0 105 -38q52 -45 52 -127q0 -79 -46 -132q-51 -58 -136 -58q-86 0 -136 59q-31 36 -43 91l91 10q18 -72 91 -72q41 0 66 27t25 67q0 46 -26 75q-26 30 -70 30q-48 0 -86 -48l-61 35l71 162q-152 16 -276 95 q-120 76 -190 203q-75 135 -75 288z" />
<glyph unicode="&#xe8;" horiz-adv-x="1331" vert-adv-y="2458" d="M86 565q0 246 171 414q169 168 410 168q202 0 359 -120q168 -127 210 -337q15 -72 15 -180h-1013q7 -124 91 -232q57 -74 143 -117q96 -48 202 -48q163 0 284 109q73 65 107 147h158q-47 -136 -165 -247q-158 -149 -381 -149q-254 0 -427 180q-164 171 -164 412zM241 647 h859q-33 143 -121 232q-60 61 -144 95q-83 34 -170 34q-124 0 -228 -66q-159 -100 -196 -295zM372 1470l65 119l406 -226l-67 -114z" />
<glyph unicode="&#xe9;" horiz-adv-x="1331" vert-adv-y="2458" d="M86 565q0 246 171 414q169 168 410 168q202 0 359 -120q168 -127 210 -337q15 -72 15 -180h-1013q7 -124 91 -232q57 -74 143 -117q96 -48 202 -48q163 0 284 109q73 65 107 147h158q-47 -136 -165 -247q-158 -149 -381 -149q-254 0 -427 180q-164 171 -164 412zM241 647 h859q-33 143 -121 232q-60 61 -144 95q-83 34 -170 34q-124 0 -228 -66q-159 -100 -196 -295zM504 1363l394 238l71 -119l-395 -233z" />
<glyph unicode="&#xea;" horiz-adv-x="1331" vert-adv-y="2458" d="M86 565q0 246 171 414q169 168 410 168q202 0 359 -120q168 -127 210 -337q15 -72 15 -180h-1013q7 -124 91 -232q57 -74 143 -117q96 -48 202 -48q163 0 284 109q73 65 107 147h158q-47 -136 -165 -247q-158 -149 -381 -149q-254 0 -427 180q-164 171 -164 412zM241 647 h859q-33 143 -121 232q-60 61 -144 95q-83 34 -170 34q-124 0 -228 -66q-159 -100 -196 -295zM313 1276l297 258h136l292 -258h-182l-177 151l-179 -151h-187z" />
<glyph unicode="&#xeb;" horiz-adv-x="1331" vert-adv-y="2458" d="M86 565q0 246 171 414q169 168 410 168q202 0 359 -120q168 -127 210 -337q15 -72 15 -180h-1013q7 -124 91 -232q57 -74 143 -117q96 -48 202 -48q163 0 284 109q73 65 107 147h158q-47 -136 -165 -247q-158 -149 -381 -149q-254 0 -427 180q-164 171 -164 412zM241 647 h859q-33 143 -121 232q-60 61 -144 95q-83 34 -170 34q-124 0 -228 -66q-159 -100 -196 -295zM449 1276v258h152v-258h-152zM750 1276v258h152v-258h-152z" />
<glyph unicode="&#xec;" horiz-adv-x="410" vert-adv-y="2458" d="M-31 1470l65 119l406 -226l-67 -114zM129 0v1120h152v-1120h-152z" />
<glyph unicode="&#xed;" horiz-adv-x="410" vert-adv-y="2458" d="M-27 1363l394 238l71 -119l-395 -233zM129 0v1120h152v-1120h-152z" />
<glyph unicode="&#xee;" horiz-adv-x="410" vert-adv-y="2458" d="M-158 1276l297 258h136l292 -258h-182l-177 151l-179 -151h-187zM129 0v1120h152v-1120h-152z" />
<glyph unicode="&#xef;" horiz-adv-x="410" vert-adv-y="2458" d="M-20 1276v258h152v-258h-152zM131 0v1120h152v-1120h-152zM281 1276v258h152v-258h-152z" />
<glyph unicode="&#xf0;" horiz-adv-x="1341" vert-adv-y="2458" d="M86 561q0 172 89 317q84 138 224 207q112 54 249 54q85 0 196 -36q-127 127 -195 188l-179 -82l-72 96l161 72q-39 37 -123 111l110 60q74 -54 138 -114l195 88l80 -92l-182 -79q125 -110 255 -252q107 -118 155 -219q69 -142 69 -309q0 -276 -174 -446 q-157 -152 -398 -152q-256 0 -423 161q-81 80 -127 191q-48 114 -48 236zM240 563q0 -199 124 -324q125 -127 319 -127q187 0 305 127q115 124 115 318q0 192 -115 315q-127 136 -313 136q-126 0 -235 -66q-102 -61 -154 -175q-46 -101 -46 -204z" />
<glyph unicode="&#xf1;" horiz-adv-x="1249" vert-adv-y="2458" d="M129 0v1120h152v-145q142 172 359 172q245 0 381 -175q65 -85 85 -193q14 -74 14 -191v-588h-152v588q0 118 -19 186q-34 121 -134 182q-85 52 -193 52q-106 0 -190 -51q-99 -60 -133 -171q-18 -60 -18 -171v-615h-152zM314 1389q26 36 65 61q59 40 125 40q44 0 122 -35 q63 -29 98 -29q56 0 116 65l68 -94q-19 -32 -80 -72q-44 -29 -106 -29q-41 0 -137 44q-46 21 -80 21q-45 0 -79 -27q-7 -6 -31 -26q-4 -4 -14 -11z" />
<glyph unicode="&#xf2;" horiz-adv-x="1341" vert-adv-y="2458" d="M86 567q0 167 89 312q81 133 224 206q122 62 274 62q271 0 438 -188q145 -164 145 -402q0 -260 -176 -430q-159 -154 -394 -154q-256 0 -425 163q-175 170 -175 431zM240 563q0 -199 124 -324q125 -127 318 -127q184 0 304 128q116 124 116 316q0 193 -114 316 q-127 136 -313 136q-127 0 -236 -66q-101 -61 -153 -175q-46 -101 -46 -204zM367 1470l65 119l406 -226l-67 -114z" />
<glyph unicode="&#xf3;" horiz-adv-x="1341" vert-adv-y="2458" d="M86 567q0 167 89 312q81 133 224 206q122 62 274 62q271 0 438 -188q145 -164 145 -402q0 -260 -176 -430q-159 -154 -394 -154q-256 0 -425 163q-175 170 -175 431zM240 563q0 -199 124 -324q125 -127 318 -127q184 0 304 128q116 124 116 316q0 193 -114 316 q-127 136 -313 136q-127 0 -236 -66q-101 -61 -153 -175q-46 -101 -46 -204zM507 1363l394 238l71 -119l-395 -233z" />
<glyph unicode="&#xf4;" horiz-adv-x="1341" vert-adv-y="2458" d="M86 567q0 167 89 312q81 133 224 206q122 62 274 62q271 0 438 -188q145 -164 145 -402q0 -260 -176 -430q-159 -154 -394 -154q-256 0 -425 163q-175 170 -175 431zM240 563q0 -199 124 -324q125 -127 318 -127q184 0 304 128q116 124 116 316q0 193 -114 316 q-127 136 -313 136q-127 0 -236 -66q-101 -61 -153 -175q-46 -101 -46 -204zM308 1276l297 258h136l292 -258h-182l-177 151l-179 -151h-187z" />
<glyph unicode="&#xf5;" horiz-adv-x="1341" vert-adv-y="2458" d="M86 567q0 167 89 312q81 133 224 206q122 62 274 62q271 0 438 -188q145 -164 145 -402q0 -260 -176 -430q-159 -154 -394 -154q-256 0 -425 163q-175 170 -175 431zM240 563q0 -199 124 -324q125 -127 318 -127q184 0 304 128q116 124 116 316q0 193 -114 316 q-127 136 -313 136q-127 0 -236 -66q-101 -61 -153 -175q-46 -101 -46 -204zM387 1389q26 36 65 61q59 40 125 40q44 0 122 -35q63 -29 98 -29q56 0 116 65l68 -94q-19 -32 -80 -72q-44 -29 -106 -29q-41 0 -137 44q-46 21 -80 21q-45 0 -79 -27q-7 -6 -31 -26 q-4 -4 -14 -11z" />
<glyph unicode="&#xf6;" horiz-adv-x="1341" vert-adv-y="2458" d="M86 567q0 167 89 312q81 133 224 206q122 62 274 62q271 0 438 -188q145 -164 145 -402q0 -260 -176 -430q-159 -154 -394 -154q-256 0 -425 163q-175 170 -175 431zM240 563q0 -199 124 -324q125 -127 318 -127q184 0 304 128q116 124 116 316q0 193 -114 316 q-127 136 -313 136q-127 0 -236 -66q-101 -61 -153 -175q-46 -101 -46 -204zM444 1276v258h152v-258h-152zM745 1276v258h152v-258h-152z" />
<glyph unicode="&#xf7;" horiz-adv-x="1241" vert-adv-y="2458" d="M104 546v152h1032v-152h-1032zM531 230v179h179v-179h-179zM531 836v179h179v-179h-179z" />
<glyph unicode="&#xf8;" horiz-adv-x="1337" vert-adv-y="2458" d="M86 556q0 253 179 426q171 165 406 165q165 0 299 -83l117 153l109 -86l-115 -152q171 -157 171 -404q0 -192 -95 -344q-84 -135 -226 -202q-117 -56 -258 -56q-152 0 -309 84l-107 -136l-107 82l104 136q-61 72 -91 124q-77 132 -77 293zM239 544q0 -156 100 -296 l549 710q-98 50 -214 50q-183 0 -307 -130q-128 -134 -128 -334zM446 162q110 -50 216 -50q194 0 314 129q122 131 122 333q0 172 -101 298z" />
<glyph unicode="&#xf9;" horiz-adv-x="1245" vert-adv-y="2458" d="M129 517v603h152v-603q0 -176 52 -264q40 -68 114 -104q76 -37 168 -37q183 0 281 140q68 98 68 292v576h152v-1120h-152v173q-109 -200 -361 -200q-256 0 -385 178q-89 122 -89 366zM319 1470l65 119l406 -226l-67 -114z" />
<glyph unicode="&#xfa;" horiz-adv-x="1245" vert-adv-y="2458" d="M129 517v603h152v-603q0 -176 52 -264q40 -68 114 -104q76 -37 168 -37q183 0 281 140q68 98 68 292v576h152v-1120h-152v173q-109 -200 -361 -200q-256 0 -385 178q-89 122 -89 366zM458 1363l394 238l71 -119l-395 -233z" />
<glyph unicode="&#xfb;" horiz-adv-x="1245" vert-adv-y="2458" d="M129 517v603h152v-603q0 -176 52 -264q40 -68 114 -104q76 -37 168 -37q183 0 281 140q68 98 68 292v576h152v-1120h-152v173q-109 -200 -361 -200q-256 0 -385 178q-89 122 -89 366zM260 1276l297 258h136l292 -258h-182l-177 151l-179 -151h-187z" />
<glyph unicode="&#xfc;" horiz-adv-x="1245" vert-adv-y="2458" d="M129 517v603h152v-603q0 -176 52 -264q40 -68 114 -104q76 -37 168 -37q183 0 281 140q68 98 68 292v576h152v-1120h-152v173q-109 -200 -361 -200q-256 0 -385 178q-89 122 -89 366zM397 1276v258h152v-258h-152zM698 1276v258h152v-258h-152z" />
<glyph unicode="&#xfd;" horiz-adv-x="1098" vert-adv-y="2458" d="M18 1120h165l354 -892l380 892h162l-648 -1513h-161l183 429zM398 1363l394 238l71 -119l-395 -233z" />
<glyph unicode="&#xfe;" horiz-adv-x="1397" vert-adv-y="2458" d="M129 -393v1906h152v-585q61 92 151 145q128 74 289 74q244 0 412 -161q82 -78 128 -185q50 -115 50 -243q0 -255 -186 -428q-168 -157 -407 -157q-286 0 -437 220v-586h-152zM270 566q0 -205 139 -335q128 -119 307 -119q176 0 303 117q139 127 139 328q0 138 -68 248 q-66 109 -188 163q-88 40 -188 40q-186 0 -316 -130q-128 -129 -128 -312z" />
<glyph unicode="&#xff;" horiz-adv-x="1098" vert-adv-y="2458" d="M18 1120h165l354 -892l380 892h162l-648 -1513h-161l183 429zM316 1276v258h152v-258h-152zM617 1276v258h152v-258h-152z" />
<glyph unicode="&#x152;" horiz-adv-x="2445" vert-adv-y="2458" d="M89 761q0 328 224 553q226 226 571 226q258 0 452 -129q114 -75 189 -199v301h806v-137h-654v-542h631v-137h-631v-560h654v-137h-806v310q-86 -151 -227 -236q-168 -101 -388 -101q-382 0 -616 254q-205 222 -205 534zM243 769q0 -262 166 -447q189 -210 489 -210 q283 0 463 199q166 183 166 452q0 290 -192 466q-187 172 -451 172q-291 0 -471 -193q-80 -85 -124 -202q-46 -118 -46 -237z" />
<glyph unicode="&#x153;" horiz-adv-x="2329" vert-adv-y="2458" d="M86 562q0 232 154 402q168 183 423 183q208 0 360 -122q77 -63 146 -177q173 299 503 299q249 0 415 -165q162 -161 162 -396q0 -25 -4 -78h-1000q9 -133 95 -234q135 -161 347 -161q264 0 385 254h153q-41 -146 -174 -264q-146 -130 -355 -130q-238 0 -403 146 q-76 68 -123 164q-83 -144 -178 -213q-135 -97 -315 -97q-262 0 -431 182q-160 172 -160 407zM240 560q0 -170 108 -297q128 -150 331 -150q172 0 288 117q60 62 96 151q35 90 35 179q0 205 -136 332q-123 116 -295 116q-187 0 -307 -129q-56 -59 -88 -145t-32 -174z M1246 645h858q-25 139 -120 237q-60 61 -146 94q-83 32 -168 32q-199 0 -325 -154q-69 -85 -99 -209z" />
<glyph unicode="&#x178;" horiz-adv-x="1212" vert-adv-y="2458" d="M4 1513h168l431 -848l439 848h167l-529 -1008v-505h-152v505zM380 1649v258h152v-258h-152zM681 1649v258h152v-258h-152z" />
<glyph unicode="&#x2c6;" horiz-adv-x="1028" vert-adv-y="2458" d="M152 1276l297 258h136l292 -258h-182l-177 151l-179 -151h-187z" />
<glyph unicode="&#x2dc;" horiz-adv-x="899" vert-adv-y="2458" d="M154 1389q26 36 65 61q59 40 125 40q44 0 122 -35q63 -29 98 -29q56 0 116 65l68 -94q-19 -32 -80 -72q-44 -29 -106 -29q-41 0 -137 44q-46 21 -80 21q-45 0 -79 -27q-7 -6 -31 -26q-4 -4 -14 -11z" />
<glyph unicode="&#x2000;" horiz-adv-x="999" vert-adv-y="0" />
<glyph unicode="&#x2001;" horiz-adv-x="1998" vert-adv-y="0" />
<glyph unicode="&#x2002;" horiz-adv-x="999" vert-adv-y="0" />
<glyph unicode="&#x2003;" horiz-adv-x="1998" vert-adv-y="0" />
<glyph unicode="&#x2004;" horiz-adv-x="666" vert-adv-y="0" />
<glyph unicode="&#x2005;" horiz-adv-x="499" vert-adv-y="0" />
<glyph unicode="&#x2006;" horiz-adv-x="333" vert-adv-y="0" />
<glyph unicode="&#x2007;" horiz-adv-x="333" vert-adv-y="0" />
<glyph unicode="&#x2008;" horiz-adv-x="249" vert-adv-y="0" />
<glyph unicode="&#x2009;" horiz-adv-x="399" vert-adv-y="0" />
<glyph unicode="&#x200a;" horiz-adv-x="111" vert-adv-y="0" />
<glyph unicode="&#x2010;" horiz-adv-x="680" vert-adv-y="2458" d="M63 477v129h555v-129h-555z" />
<glyph unicode="&#x2011;" horiz-adv-x="680" vert-adv-y="2458" d="M63 477v129h555v-129h-555z" />
<glyph unicode="&#x2012;" horiz-adv-x="680" vert-adv-y="2458" d="M63 477v129h555v-129h-555z" />
<glyph unicode="&#x2013;" horiz-adv-x="1024" vert-adv-y="2458" d="M0 477v129h1024v-129h-1024z" />
<glyph unicode="&#x2014;" horiz-adv-x="2048" vert-adv-y="2458" d="M0 477v129h2048v-129h-2048z" />
<glyph unicode="&#x2018;" horiz-adv-x="719" vert-adv-y="2458" d="M201 1513h152l180 -393h-152z" />
<glyph unicode="&#x2019;" horiz-adv-x="719" vert-adv-y="2458" d="M186 1120l180 393h152l-180 -393h-152z" />
<glyph unicode="&#x201a;" horiz-adv-x="725" vert-adv-y="2458" d="M182 -137l180 395h152l-180 -395h-152z" />
<glyph unicode="&#x201c;" horiz-adv-x="1028" vert-adv-y="2458" d="M197 1513h152l180 -393h-152zM500 1513h152l180 -393h-152z" />
<glyph unicode="&#x201d;" horiz-adv-x="991" vert-adv-y="2458" d="M178 1120l180 393h151l-180 -393h-151zM473 1120l180 393h152l-180 -393h-152z" />
<glyph unicode="&#x201e;" horiz-adv-x="1028" vert-adv-y="2458" d="M182 -137l180 395h152l-180 -395h-152zM483 -137l180 395h152l-180 -395h-152z" />
<glyph unicode="&#x2022;" horiz-adv-x="1241" vert-adv-y="2458" d="M242 621q0 160 111 268q114 111 269 111q156 0 267 -111q111 -110 111 -267q0 -158 -111 -269t-272 -111q-152 0 -264 111q-111 111 -111 268z" />
<glyph unicode="&#x2026;" horiz-adv-x="2048" vert-adv-y="2458" d="M266 0v258h152v-258h-152zM948 0v258h152v-258h-152zM1630 0v258h152v-258h-152z" />
<glyph unicode="&#x202f;" horiz-adv-x="399" vert-adv-y="0" />
<glyph unicode="&#x2039;" horiz-adv-x="514" vert-adv-y="2458" d="M82 614l230 408l120 -65l-190 -343l190 -344l-120 -67z" />
<glyph unicode="&#x203a;" horiz-adv-x="514" vert-adv-y="2458" d="M82 270l190 344l-190 343l120 65l230 -408l-230 -411z" />
<glyph unicode="&#x205f;" horiz-adv-x="499" vert-adv-y="0" />
<glyph unicode="&#x20ac;" vert-adv-y="2458" d="M-65 819l50 120h153q29 160 65 253.5t96 165.5q153 182 424 182q138 0 248 -60q59 -31 100 -72q46 -46 104 -122l-64 -141q-110 162 -193 209q-87 50 -193 50q-223 0 -336 -176q-57 -87 -99 -289h719l-49 -120h-681q-5 -53 -5 -77q0 -23 2 -64h622l-50 -120h-561 q19 -141 74 -242q115 -209 353 -209q120 0 207 45q56 30 177 141v-165q-49 -49 -90 -76q-122 -79 -293 -79q-285 0 -437 202q-88 118 -121 259q-12 53 -24 124h-196l50 120h139q-3 42 -3 64q0 25 5 77h-193z" />
<glyph unicode="&#x2122;" horiz-adv-x="2048" vert-adv-y="2458" d="M129 1394v119h717v-119h-295v-698h-131v698h-291zM944 696v817h223l261 -582l276 582h217v-817h-131v705l-319 -705h-87l-309 706v-706h-131z" />
<glyph unicode="&#xe000;" horiz-adv-x="1120" vert-adv-y="2240" d="M0 0v1120h1120v-1120h-1120z" />
</font>
</defs>
</svg>
